Weblight.ufo
<glyph name="exclam" format="2">
  <advance width="217.0"/>
  <unicode hex="0021"/>
  <outline>
    <contour>
      <point x="93" y="186" type="line"/>
      <point x="124" y="186" type="line"/>
      <point x="124" y="217" type="line"/>
      <point x="155" y="217" type="line"/>
      <point x="155" y="248" type="line"/>
      <point x="124" y="248" type="line"/>
      <point x="124" y="279" type="line"/>
      <point x="155" y="279" type="line"/>
      <point x="155" y="682" type="line"/>
      <point x="62" y="682" type="line"/>
      <point x="62" y="279" type="line"/>
      <point x="93" y="279" type="line"/>
      <point x="93" y="248" type="line"/>
      <point x="62" y="248" type="line"/>
      <point x="62" y="217" type="line"/>
      <point x="93" y="217" type="line"/>
    </contour>
    <contour>
      <point x="62" y="0" type="line"/>
      <point x="155" y="0" type="line"/>
      <point x="155" y="93" type="line"/>
      <point x="62" y="93" type="line"/>
    </contour>
  </outline>
</glyph>
<glyph name="numbersign" format="2">
  <advance width="589.0"/>
  <unicode hex="0023"/>
  <outline>
    <contour>
      <point x="124" y="31" type="line"/>
      <point x="217" y="31" type="line"/>
      <point x="217" y="186" type="line"/>
      <point x="310" y="186" type="line"/>
      <point x="310" y="31" type="line"/>
      <point x="403" y="31" type="line"/>
      <point x="403" y="186" type="line"/>
      <point x="527" y="186" type="line"/>
      <point x="527" y="279" type="line"/>
      <point x="434" y="279" type="line"/>
      <point x="434" y="372" type="line"/>
      <point x="558" y="372" type="line"/>
      <point x="558" y="465" type="line"/>
      <point x="465" y="465" type="line"/>
      <point x="465" y="620" type="line"/>
      <point x="372" y="620" type="line"/>
      <point x="372" y="465" type="line"/>
      <point x="279" y="465" type="line"/>
      <point x="279" y="620" type="line"/>
      <point x="186" y="620" type="line"/>
      <point x="186" y="465" type="line"/>
      <point x="62" y="465" type="line"/>
      <point x="62" y="372" type="line"/>
      <point x="155" y="372" type="line"/>
      <point x="155" y="279" type="line"/>
      <point x="31" y="279" type="line"/>
      <point x="31" y="186" type="line"/>
      <point x="124" y="186" type="line"/>
    </contour>
    <contour>
      <point x="341" y="279" type="line"/>
      <point x="248" y="279" type="line"/>
      <point x="248" y="372" type="line"/>
      <point x="341" y="372" type="line"/>
    </contour>
  </outline>
</glyph>
<glyph name="dollar" format="2">
  <advance width="496.0"/>
  <unicode hex="0024"/>
  <outline>
    <contour>
      <point x="62" y="31" type="line"/>
      <point x="124" y="31" type="line"/>
      <point x="124" y="0" type="line"/>
      <point x="186" y="0" type="line"/>
      <point x="186" y="-93" type="line"/>
      <point x="279" y="-93" type="line"/>
      <point x="279" y="0" type="line"/>
      <point x="341" y="0" type="line"/>
      <point x="341" y="31" type="line"/>
      <point x="403" y="31" type="line"/>
      <point x="403" y="62" type="line"/>
      <point x="434" y="62" type="line"/>
      <point x="434" y="124" type="line"/>
      <point x="465" y="124" type="line"/>
      <point x="465" y="279" type="line"/>
      <point x="434" y="279" type="line"/>
      <point x="434" y="341" type="line"/>
      <point x="403" y="341" type="line"/>
      <point x="403" y="372" type="line"/>
      <point x="341" y="372" type="line"/>
      <point x="341" y="403" type="line"/>
      <point x="279" y="403" type="line"/>
      <point x="279" y="589" type="line"/>
      <point x="310" y="589" type="line"/>
      <point x="310" y="558" type="line"/>
      <point x="341" y="558" type="line"/>
      <point x="341" y="465" type="line"/>
      <point x="434" y="465" type="line"/>
      <point x="434" y="589" type="line"/>
      <point x="403" y="589" type="line"/>
      <point x="403" y="651" type="line"/>
      <point x="341" y="651" type="line"/>
      <point x="341" y="682" type="line"/>
      <point x="279" y="682" type="line"/>
      <point x="279" y="775" type="line"/>
      <point x="186" y="775" type="line"/>
      <point x="186" y="682" type="line"/>
      <point x="155" y="682" type="line"/>
      <point x="155" y="651" type="line"/>
      <point x="62" y="651" type="line"/>
      <point x="62" y="589" type="line"/>
      <point x="31" y="589" type="line"/>
      <point x="31" y="403" type="line"/>
      <point x="62" y="403" type="line"/>
      <point x="62" y="341" type="line"/>
      <point x="155" y="341" type="line"/>
      <point x="155" y="310" type="line"/>
      <point x="186" y="310" type="line"/>
      <point x="186" y="93" type="line"/>
      <point x="155" y="93" type="line"/>
      <point x="155" y="124" type="line"/>
      <point x="124" y="124" type="line"/>
      <point x="124" y="155" type="line"/>
      <point x="93" y="155" type="line"/>
      <point x="93" y="217" type="line"/>
      <point x="0" y="217" type="line"/>
      <point x="0" y="124" type="line"/>
      <point x="31" y="124" type="line"/>
      <point x="31" y="93" type="line"/>
      <point x="62" y="93" type="line"/>
    </contour>
    <contour>
      <point x="155" y="558" type="line"/>
      <point x="155" y="589" type="line"/>
      <point x="186" y="589" type="line"/>
      <point x="186" y="434" type="line"/>
      <point x="155" y="434" type="line"/>
      <point x="155" y="465" type="line"/>
      <point x="124" y="465" type="line"/>
      <point x="124" y="558" type="line"/>
    </contour>
    <contour>
      <point x="310" y="248" type="line"/>
      <point x="341" y="248" type="line"/>
      <point x="341" y="217" type="line"/>
      <point x="372" y="217" type="line"/>
      <point x="372" y="155" type="line"/>
      <point x="341" y="155" type="line"/>
      <point x="341" y="124" type="line"/>
      <point x="310" y="124" type="line"/>
      <point x="310" y="93" type="line"/>
      <point x="279" y="93" type="line"/>
      <point x="279" y="279" type="line"/>
      <point x="310" y="279" type="line"/>
    </contour>
  </outline>
</glyph>
<glyph name="ampersand" format="2">
  <advance width="558.0"/>
  <unicode hex="0026"/>
  <outline>
    <contour>
      <point x="62" y="31" type="line"/>
      <point x="124" y="31" type="line"/>
      <point x="124" y="0" type="line"/>
      <point x="341" y="0" type="line"/>
      <point x="341" y="31" type="line"/>
      <point x="372" y="31" type="line"/>
      <point x="372" y="62" type="line"/>
      <point x="403" y="62" type="line"/>
      <point x="403" y="31" type="line"/>
      <point x="434" y="31" type="line"/>
      <point x="434" y="0" type="line"/>
      <point x="558" y="0" type="line"/>
      <point x="558" y="93" type="line"/>
      <point x="496" y="93" type="line"/>
      <point x="496" y="124" type="line"/>
      <point x="465" y="124" type="line"/>
      <point x="465" y="186" type="line"/>
      <point x="496" y="186" type="line"/>
      <point x="496" y="217" type="line"/>
      <point x="527" y="217" type="line"/>
      <point x="527" y="279" type="line"/>
      <point x="496" y="279" type="line"/>
      <point x="496" y="310" type="line"/>
      <point x="434" y="310" type="line"/>
      <point x="434" y="279" type="line"/>
      <point x="403" y="279" type="line"/>
      <point x="403" y="217" type="line"/>
      <point x="372" y="217" type="line"/>
      <point x="372" y="248" type="line"/>
      <point x="341" y="248" type="line"/>
      <point x="341" y="310" type="line"/>
      <point x="310" y="310" type="line"/>
      <point x="310" y="341" type="line"/>
      <point x="341" y="341" type="line"/>
      <point x="341" y="372" type="line"/>
      <point x="403" y="372" type="line"/>
      <point x="403" y="403" type="line"/>
      <point x="434" y="403" type="line"/>
      <point x="434" y="465" type="line"/>
      <point x="465" y="465" type="line"/>
      <point x="465" y="589" type="line"/>
      <point x="434" y="589" type="line"/>
      <point x="434" y="651" type="line"/>
      <point x="372" y="651" type="line"/>
      <point x="372" y="682" type="line"/>
      <point x="248" y="682" type="line"/>
      <point x="248" y="651" type="line"/>
      <point x="186" y="651" type="line"/>
      <point x="186" y="589" type="line"/>
      <point x="155" y="589" type="line"/>
      <point x="155" y="434" type="line"/>
      <point x="186" y="434" type="line"/>
      <point x="186" y="372" type="line"/>
      <point x="155" y="372" type="line"/>
      <point x="155" y="341" type="line"/>
      <point x="93" y="341" type="line"/>
      <point x="93" y="310" type="line"/>
      <point x="62" y="310" type="line"/>
      <point x="62" y="248" type="line"/>
      <point x="31" y="248" type="line"/>
      <point x="31" y="93" type="line"/>
      <point x="62" y="93" type="line"/>
    </contour>
    <contour>
      <point x="341" y="558" type="line"/>
      <point x="372" y="558" type="line"/>
      <point x="372" y="496" type="line"/>
      <point x="341" y="496" type="line"/>
      <point x="341" y="465" type="line"/>
      <point x="279" y="465" type="line"/>
      <point x="279" y="496" type="line"/>
      <point x="248" y="496" type="line"/>
      <point x="248" y="558" type="line"/>
      <point x="279" y="558" type="line"/>
      <point x="279" y="589" type="line"/>
      <point x="341" y="589" type="line"/>
    </contour>
    <contour>
      <point x="279" y="186" type="line"/>
      <point x="310" y="186" type="line"/>
      <point x="310" y="124" type="line"/>
      <point x="279" y="124" type="line"/>
      <point x="279" y="93" type="line"/>
      <point x="186" y="93" type="line"/>
      <point x="186" y="124" type="line"/>
      <point x="155" y="124" type="line"/>
      <point x="155" y="186" type="line"/>
      <point x="124" y="186" type="line"/>
      <point x="124" y="217" type="line"/>
      <point x="155" y="217" type="line"/>
      <point x="155" y="248" type="line"/>
      <point x="186" y="248" type="line"/>
      <point x="186" y="279" type="line"/>
      <point x="248" y="279" type="line"/>
      <point x="248" y="248" type="line"/>
      <point x="279" y="248" type="line"/>
    </contour>
  </outline>
</glyph>
<glyph name="parenleft" format="2">
  <advance width="248.0"/>
  <unicode hex="0028"/>
  <outline>
    <contour>
      <point x="93" y="31" type="line"/>
      <point x="124" y="31" type="line"/>
      <point x="124" y="-31" type="line"/>
      <point x="155" y="-31" type="line"/>
      <point x="155" y="-62" type="line"/>
      <point x="186" y="-62" type="line"/>
      <point x="186" y="-93" type="line"/>
      <point x="248" y="-93" type="line"/>
      <point x="248" y="-62" type="line"/>
      <point x="217" y="-62" type="line"/>
      <point x="217" y="-31" type="line"/>
      <point x="186" y="-31" type="line"/>
      <point x="186" y="31" type="line"/>
      <point x="155" y="31" type="line"/>
      <point x="155" y="124" type="line"/>
      <point x="124" y="124" type="line"/>
      <point x="124" y="496" type="line"/>
      <point x="155" y="496" type="line"/>
      <point x="155" y="589" type="line"/>
      <point x="186" y="589" type="line"/>
      <point x="186" y="651" type="line"/>
      <point x="217" y="651" type="line"/>
      <point x="217" y="682" type="line"/>
      <point x="248" y="682" type="line"/>
      <point x="248" y="713" type="line"/>
      <point x="186" y="713" type="line"/>
      <point x="186" y="682" type="line"/>
      <point x="155" y="682" type="line"/>
      <point x="155" y="651" type="line"/>
      <point x="124" y="651" type="line"/>
      <point x="124" y="589" type="line"/>
      <point x="93" y="589" type="line"/>
      <point x="93" y="527" type="line"/>
      <point x="62" y="527" type="line"/>
      <point x="62" y="403" type="line"/>
      <point x="31" y="403" type="line"/>
      <point x="31" y="217" type="line"/>
      <point x="62" y="217" type="line"/>
      <point x="62" y="93" type="line"/>
      <point x="93" y="93" type="line"/>
    </contour>
  </outline>
</glyph>
<glyph name="parenright" format="2">
  <advance width="248.0"/>
  <unicode hex="0029"/>
  <outline>
    <contour>
      <point x="0" y="-93" type="line"/>
      <point x="62" y="-93" type="line"/>
      <point x="62" y="-62" type="line"/>
      <point x="93" y="-62" type="line"/>
      <point x="93" y="-31" type="line"/>
      <point x="124" y="-31" type="line"/>
      <point x="124" y="31" type="line"/>
      <point x="155" y="31" type="line"/>
      <point x="155" y="93" type="line"/>
      <point x="186" y="93" type="line"/>
      <point x="186" y="217" type="line"/>
      <point x="217" y="217" type="line"/>
      <point x="217" y="403" type="line"/>
      <point x="186" y="403" type="line"/>
      <point x="186" y="527" type="line"/>
      <point x="155" y="527" type="line"/>
      <point x="155" y="589" type="line"/>
      <point x="124" y="589" type="line"/>
      <point x="124" y="651" type="line"/>
      <point x="93" y="651" type="line"/>
      <point x="93" y="682" type="line"/>
      <point x="62" y="682" type="line"/>
      <point x="62" y="713" type="line"/>
      <point x="0" y="713" type="line"/>
      <point x="0" y="682" type="line"/>
      <point x="31" y="682" type="line"/>
      <point x="31" y="651" type="line"/>
      <point x="62" y="651" type="line"/>
      <point x="62" y="589" type="line"/>
      <point x="93" y="589" type="line"/>
      <point x="93" y="496" type="line"/>
      <point x="124" y="496" type="line"/>
      <point x="124" y="124" type="line"/>
      <point x="93" y="124" type="line"/>
      <point x="93" y="31" type="line"/>
      <point x="62" y="31" type="line"/>
      <point x="62" y="-31" type="line"/>
      <point x="31" y="-31" type="line"/>
      <point x="31" y="-62" type="line"/>
      <point x="0" y="-62" type="line"/>
    </contour>
  </outline>
</glyph>
<glyph name="period" format="2">
  <advance width="217.0"/>
  <unicode hex="002E"/>
  <outline>
    <contour>
      <point x="62" y="0" type="line"/>
      <point x="155" y="0" type="line"/>
      <point x="155" y="124" type="line"/>
      <point x="62" y="124" type="line"/>
    </contour>
  </outline>
</glyph>
<glyph name="slash" format="2">
  <advance width="372.0"/>
  <unicode hex="002F"/>
  <outline>
    <contour>
      <point x="0" y="0" type="line"/>
      <point x="62" y="0" type="line"/>
      <point x="62" y="62" type="line"/>
      <point x="93" y="62" type="line"/>
      <point x="93" y="124" type="line"/>
      <point x="124" y="124" type="line"/>
      <point x="124" y="186" type="line"/>
      <point x="155" y="186" type="line"/>
      <point x="155" y="248" type="line"/>
      <point x="186" y="248" type="line"/>
      <point x="186" y="310" type="line"/>
      <point x="217" y="310" type="line"/>
      <point x="217" y="372" type="line"/>
      <point x="248" y="372" type="line"/>
      <point x="248" y="434" type="line"/>
      <point x="279" y="434" type="line"/>
      <point x="279" y="496" type="line"/>
      <point x="310" y="496" type="line"/>
      <point x="310" y="558" type="line"/>
      <point x="341" y="558" type="line"/>
      <point x="341" y="620" type="line"/>
      <point x="372" y="620" type="line"/>
      <point x="372" y="682" type="line"/>
      <point x="310" y="682" type="line"/>
      <point x="310" y="620" type="line"/>
      <point x="279" y="620" type="line"/>
      <point x="279" y="558" type="line"/>
      <point x="248" y="558" type="line"/>
      <point x="248" y="496" type="line"/>
      <point x="217" y="496" type="line"/>
      <point x="217" y="434" type="line"/>
      <point x="186" y="434" type="line"/>
      <point x="186" y="372" type="line"/>
      <point x="155" y="372" type="line"/>
      <point x="155" y="310" type="line"/>
      <point x="124" y="310" type="line"/>
      <point x="124" y="248" type="line"/>
      <point x="93" y="248" type="line"/>
      <point x="93" y="186" type="line"/>
      <point x="62" y="186" type="line"/>
      <point x="62" y="124" type="line"/>
      <point x="31" y="124" type="line"/>
      <point x="31" y="62" type="line"/>
      <point x="0" y="62" type="line"/>
    </contour>
  </outline>
</glyph>
<glyph name="one" format="2">
  <advance width="496.0"/>
  <unicode hex="0031"/>
  <outline>
    <contour>
      <point x="248" y="0" type="line"/>
      <point x="341" y="0" type="line"/>
      <point x="341" y="651" type="line"/>
      <point x="248" y="651" type="line"/>
      <point x="248" y="589" type="line"/>
      <point x="217" y="589" type="line"/>
      <point x="217" y="558" type="line"/>
      <point x="155" y="558" type="line"/>
      <point x="155" y="527" type="line"/>
      <point x="62" y="527" type="line"/>
      <point x="62" y="465" type="line"/>
      <point x="248" y="465" type="line"/>
    </contour>
  </outline>
</glyph>
<glyph name="three" format="2">
  <advance width="496.0"/>
  <unicode hex="0033"/>
  <outline>
    <contour>
      <point x="62" y="62" type="line"/>
      <point x="93" y="62" type="line"/>
      <point x="93" y="31" type="line"/>
      <point x="155" y="31" type="line"/>
      <point x="155" y="0" type="line"/>
      <point x="341" y="0" type="line"/>
      <point x="341" y="31" type="line"/>
      <point x="403" y="31" type="line"/>
      <point x="403" y="62" type="line"/>
      <point x="434" y="62" type="line"/>
      <point x="434" y="93" type="line"/>
      <point x="465" y="93" type="line"/>
      <point x="465" y="248" type="line"/>
      <point x="434" y="248" type="line"/>
      <point x="434" y="310" type="line"/>
      <point x="372" y="310" type="line"/>
      <point x="372" y="341" type="line"/>
      <point x="403" y="341" type="line"/>
      <point x="403" y="372" type="line"/>
      <point x="434" y="372" type="line"/>
      <point x="434" y="403" type="line"/>
      <point x="465" y="403" type="line"/>
      <point x="465" y="527" type="line"/>
      <point x="434" y="527" type="line"/>
      <point x="434" y="589" type="line"/>
      <point x="403" y="589" type="line"/>
      <point x="403" y="620" type="line"/>
      <point x="341" y="620" type="line"/>
      <point x="341" y="651" type="line"/>
      <point x="155" y="651" type="line"/>
      <point x="155" y="620" type="line"/>
      <point x="93" y="620" type="line"/>
      <point x="93" y="589" type="line"/>
      <point x="62" y="589" type="line"/>
      <point x="62" y="527" type="line"/>
      <point x="31" y="527" type="line"/>
      <point x="31" y="434" type="line"/>
      <point x="124" y="434" type="line"/>
      <point x="124" y="496" type="line"/>
      <point x="155" y="496" type="line"/>
      <point x="155" y="527" type="line"/>
      <point x="186" y="527" type="line"/>
      <point x="186" y="558" type="line"/>
      <point x="310" y="558" type="line"/>
      <point x="310" y="527" type="line"/>
      <point x="341" y="527" type="line"/>
      <point x="341" y="496" type="line"/>
      <point x="372" y="496" type="line"/>
      <point x="372" y="434" type="line"/>
      <point x="341" y="434" type="line"/>
      <point x="341" y="403" type="line"/>
      <point x="310" y="403" type="line"/>
      <point x="310" y="372" type="line"/>
      <point x="186" y="372" type="line"/>
      <point x="186" y="279" type="line"/>
      <point x="310" y="279" type="line"/>
      <point x="310" y="248" type="line"/>
      <point x="341" y="248" type="line"/>
      <point x="341" y="217" type="line"/>
      <point x="372" y="217" type="line"/>
      <point x="372" y="155" type="line"/>
      <point x="341" y="155" type="line"/>
      <point x="341" y="124" type="line"/>
      <point x="310" y="124" type="line"/>
      <point x="310" y="93" type="line"/>
      <point x="186" y="93" type="line"/>
      <point x="186" y="124" type="line"/>
      <point x="155" y="124" type="line"/>
      <point x="155" y="155" type="line"/>
      <point x="124" y="155" type="line"/>
      <point x="124" y="217" type="line"/>
      <point x="31" y="217" type="line"/>
      <point x="31" y="93" type="line"/>
      <point x="62" y="93" type="line"/>
    </contour>
  </outline>
</glyph>
<glyph name="four" format="2">
  <advance width="496.0"/>
  <unicode hex="0034"/>
  <outline>
    <contour>
      <point x="31" y="155" type="line"/>
      <point x="310" y="155" type="line"/>
      <point x="310" y="0" type="line"/>
      <point x="403" y="0" type="line"/>
      <point x="403" y="155" type="line"/>
      <point x="496" y="155" type="line"/>
      <point x="496" y="248" type="line"/>
      <point x="403" y="248" type="line"/>
      <point x="403" y="651" type="line"/>
      <point x="310" y="651" type="line"/>
      <point x="310" y="620" type="line"/>
      <point x="279" y="620" type="line"/>
      <point x="279" y="589" type="line"/>
      <point x="248" y="589" type="line"/>
      <point x="248" y="527" type="line"/>
      <point x="217" y="527" type="line"/>
      <point x="217" y="496" type="line"/>
      <point x="186" y="496" type="line"/>
      <point x="186" y="434" type="line"/>
      <point x="155" y="434" type="line"/>
      <point x="155" y="403" type="line"/>
      <point x="124" y="403" type="line"/>
      <point x="124" y="341" type="line"/>
      <point x="93" y="341" type="line"/>
      <point x="93" y="310" type="line"/>
      <point x="62" y="310" type="line"/>
      <point x="62" y="248" type="line"/>
      <point x="31" y="248" type="line"/>
    </contour>
    <contour>
      <point x="186" y="341" type="line"/>
      <point x="217" y="341" type="line"/>
      <point x="217" y="403" type="line"/>
      <point x="248" y="403" type="line"/>
      <point x="248" y="465" type="line"/>
      <point x="279" y="465" type="line"/>
      <point x="279" y="496" type="line"/>
      <point x="310" y="496" type="line"/>
      <point x="310" y="248" type="line"/>
      <point x="155" y="248" type="line"/>
      <point x="155" y="310" type="line"/>
      <point x="186" y="310" type="line"/>
    </contour>
  </outline>
</glyph>
<glyph name="seven" format="2">
  <advance width="496.0"/>
  <unicode hex="0037"/>
  <outline>
    <contour>
      <point x="93" y="0" type="line"/>
      <point x="217" y="0" type="line"/>
      <point x="217" y="93" type="line"/>
      <point x="248" y="93" type="line"/>
      <point x="248" y="186" type="line"/>
      <point x="279" y="186" type="line"/>
      <point x="279" y="279" type="line"/>
      <point x="310" y="279" type="line"/>
      <point x="310" y="341" type="line"/>
      <point x="341" y="341" type="line"/>
      <point x="341" y="403" type="line"/>
      <point x="372" y="403" type="line"/>
      <point x="372" y="434" type="line"/>
      <point x="403" y="434" type="line"/>
      <point x="403" y="496" type="line"/>
      <point x="434" y="496" type="line"/>
      <point x="434" y="527" type="line"/>
      <point x="465" y="527" type="line"/>
      <point x="465" y="651" type="line"/>
      <point x="31" y="651" type="line"/>
      <point x="31" y="465" type="line"/>
      <point x="124" y="465" type="line"/>
      <point x="124" y="558" type="line"/>
      <point x="372" y="558" type="line"/>
      <point x="372" y="527" type="line"/>
      <point x="341" y="527" type="line"/>
      <point x="341" y="496" type="line"/>
      <point x="310" y="496" type="line"/>
      <point x="310" y="465" type="line"/>
      <point x="279" y="465" type="line"/>
      <point x="279" y="403" type="line"/>
      <point x="248" y="403" type="line"/>
      <point x="248" y="341" type="line"/>
      <point x="217" y="341" type="line"/>
      <point x="217" y="279" type="line"/>
      <point x="186" y="279" type="line"/>
      <point x="186" y="217" type="line"/>
      <point x="155" y="217" type="line"/>
      <point x="155" y="155" type="line"/>
      <point x="124" y="155" type="line"/>
      <point x="124" y="62" type="line"/>
      <point x="93" y="62" type="line"/>
    </contour>
  </outline>
</glyph>
<glyph name="nine" format="2">
  <advance width="496.0"/>
  <unicode hex="0039"/>
  <outline>
    <contour>
      <point x="62" y="62" type="line"/>
      <point x="93" y="62" type="line"/>
      <point x="93" y="31" type="line"/>
      <point x="155" y="31" type="line"/>
      <point x="155" y="0" type="line"/>
      <point x="341" y="0" type="line"/>
      <point x="341" y="31" type="line"/>
      <point x="403" y="31" type="line"/>
      <point x="403" y="62" type="line"/>
      <point x="434" y="62" type="line"/>
      <point x="434" y="155" type="line"/>
      <point x="465" y="155" type="line"/>
      <point x="465" y="496" type="line"/>
      <point x="434" y="496" type="line"/>
      <point x="434" y="589" type="line"/>
      <point x="403" y="589" type="line"/>
      <point x="403" y="620" type="line"/>
      <point x="341" y="620" type="line"/>
      <point x="341" y="651" type="line"/>
      <point x="155" y="651" type="line"/>
      <point x="155" y="620" type="line"/>
      <point x="93" y="620" type="line"/>
      <point x="93" y="589" type="line"/>
      <point x="62" y="589" type="line"/>
      <point x="62" y="527" type="line"/>
      <point x="31" y="527" type="line"/>
      <point x="31" y="341" type="line"/>
      <point x="62" y="341" type="line"/>
      <point x="62" y="279" type="line"/>
      <point x="93" y="279" type="line"/>
      <point x="93" y="248" type="line"/>
      <point x="155" y="248" type="line"/>
      <point x="155" y="217" type="line"/>
      <point x="341" y="217" type="line"/>
      <point x="341" y="248" type="line"/>
      <point x="372" y="248" type="line"/>
      <point x="372" y="186" type="line"/>
      <point x="341" y="186" type="line"/>
      <point x="341" y="124" type="line"/>
      <point x="310" y="124" type="line"/>
      <point x="310" y="93" type="line"/>
      <point x="186" y="93" type="line"/>
      <point x="186" y="124" type="line"/>
      <point x="124" y="124" type="line"/>
      <point x="124" y="186" type="line"/>
      <point x="31" y="186" type="line"/>
      <point x="31" y="124" type="line"/>
      <point x="62" y="124" type="line"/>
    </contour>
    <contour>
      <point x="341" y="465" type="line"/>
      <point x="372" y="465" type="line"/>
      <point x="372" y="372" type="line"/>
      <point x="341" y="372" type="line"/>
      <point x="341" y="341" type="line"/>
      <point x="310" y="341" type="line"/>
      <point x="310" y="310" type="line"/>
      <point x="186" y="310" type="line"/>
      <point x="186" y="341" type="line"/>
      <point x="155" y="341" type="line"/>
      <point x="155" y="372" type="line"/>
      <point x="124" y="372" type="line"/>
      <point x="124" y="496" type="line"/>
      <point x="155" y="496" type="line"/>
      <point x="155" y="527" type="line"/>
      <point x="186" y="527" type="line"/>
      <point x="186" y="558" type="line"/>
      <point x="310" y="558" type="line"/>
      <point x="310" y="527" type="line"/>
      <point x="341" y="527" type="line"/>
    </contour>
  </outline>
</glyph>
<glyph name="less" format="2">
  <advance width="558.0"/>
  <unicode hex="003C"/>
  <outline>
    <contour>
      <point x="124" y="217" type="line"/>
      <point x="186" y="217" type="line"/>
      <point x="186" y="186" type="line"/>
      <point x="217" y="186" type="line"/>
      <point x="217" y="155" type="line"/>
      <point x="279" y="155" type="line"/>
      <point x="279" y="124" type="line"/>
      <point x="310" y="124" type="line"/>
      <point x="310" y="93" type="line"/>
      <point x="372" y="93" type="line"/>
      <point x="372" y="62" type="line"/>
      <point x="403" y="62" type="line"/>
      <point x="403" y="31" type="line"/>
      <point x="465" y="31" type="line"/>
      <point x="465" y="0" type="line"/>
      <point x="527" y="0" type="line"/>
      <point x="527" y="124" type="line"/>
      <point x="496" y="124" type="line"/>
      <point x="496" y="155" type="line"/>
      <point x="434" y="155" type="line"/>
      <point x="434" y="186" type="line"/>
      <point x="403" y="186" type="line"/>
      <point x="403" y="217" type="line"/>
      <point x="341" y="217" type="line"/>
      <point x="341" y="248" type="line"/>
      <point x="310" y="248" type="line"/>
      <point x="310" y="279" type="line"/>
      <point x="248" y="279" type="line"/>
      <point x="248" y="310" type="line"/>
      <point x="217" y="310" type="line"/>
      <point x="217" y="341" type="line"/>
      <point x="186" y="341" type="line"/>
      <point x="186" y="372" type="line"/>
      <point x="248" y="372" type="line"/>
      <point x="248" y="403" type="line"/>
      <point x="310" y="403" type="line"/>
      <point x="310" y="434" type="line"/>
      <point x="341" y="434" type="line"/>
      <point x="341" y="465" type="line"/>
      <point x="403" y="465" type="line"/>
      <point x="403" y="496" type="line"/>
      <point x="434" y="496" type="line"/>
      <point x="434" y="527" type="line"/>
      <point x="496" y="527" type="line"/>
      <point x="496" y="558" type="line"/>
      <point x="527" y="558" type="line"/>
      <point x="527" y="682" type="line"/>
      <point x="465" y="682" type="line"/>
      <point x="465" y="651" type="line"/>
      <point x="403" y="651" type="line"/>
      <point x="403" y="620" type="line"/>
      <point x="372" y="620" type="line"/>
      <point x="372" y="589" type="line"/>
      <point x="310" y="589" type="line"/>
      <point x="310" y="558" type="line"/>
      <point x="279" y="558" type="line"/>
      <point x="279" y="527" type="line"/>
      <point x="217" y="527" type="line"/>
      <point x="217" y="496" type="line"/>
      <point x="186" y="496" type="line"/>
      <point x="186" y="465" type="line"/>
      <point x="124" y="465" type="line"/>
      <point x="124" y="434" type="line"/>
      <point x="93" y="434" type="line"/>
      <point x="93" y="403" type="line"/>
      <point x="31" y="403" type="line"/>
      <point x="31" y="372" type="line"/>
      <point x="0" y="372" type="line"/>
      <point x="0" y="310" type="line"/>
      <point x="31" y="310" type="line"/>
      <point x="31" y="279" type="line"/>
      <point x="93" y="279" type="line"/>
      <point x="93" y="248" type="line"/>
      <point x="124" y="248" type="line"/>
    </contour>
  </outline>
</glyph>
<glyph name="equal" format="2">
  <advance width="496.0"/>
  <unicode hex="003D"/>
  <outline>
    <contour>
      <point x="31" y="310" type="line"/>
      <point x="465" y="310" type="line"/>
      <point x="465" y="403" type="line"/>
      <point x="31" y="403" type="line"/>
    </contour>
    <contour>
      <point x="31" y="155" type="line"/>
      <point x="465" y="155" type="line"/>
      <point x="465" y="248" type="line"/>
      <point x="31" y="248" type="line"/>
    </contour>
  </outline>
</glyph>
<glyph name="question" format="2">
  <advance width="496.0"/>
  <unicode hex="003F"/>
  <outline>
    <contour>
      <point x="155" y="186" type="line"/>
      <point x="248" y="186" type="line"/>
      <point x="248" y="279" type="line"/>
      <point x="341" y="279" type="line"/>
      <point x="341" y="310" type="line"/>
      <point x="403" y="310" type="line"/>
      <point x="403" y="341" type="line"/>
      <point x="434" y="341" type="line"/>
      <point x="434" y="403" type="line"/>
      <point x="465" y="403" type="line"/>
      <point x="465" y="558" type="line"/>
      <point x="434" y="558" type="line"/>
      <point x="434" y="620" type="line"/>
      <point x="403" y="620" type="line"/>
      <point x="403" y="651" type="line"/>
      <point x="341" y="651" type="line"/>
      <point x="341" y="682" type="line"/>
      <point x="155" y="682" type="line"/>
      <point x="155" y="651" type="line"/>
      <point x="93" y="651" type="line"/>
      <point x="93" y="620" type="line"/>
      <point x="62" y="620" type="line"/>
      <point x="62" y="589" type="line"/>
      <point x="31" y="589" type="line"/>
      <point x="31" y="465" type="line"/>
      <point x="124" y="465" type="line"/>
      <point x="124" y="527" type="line"/>
      <point x="155" y="527" type="line"/>
      <point x="155" y="558" type="line"/>
      <point x="186" y="558" type="line"/>
      <point x="186" y="589" type="line"/>
      <point x="310" y="589" type="line"/>
      <point x="310" y="558" type="line"/>
      <point x="341" y="558" type="line"/>
      <point x="341" y="527" type="line"/>
      <point x="372" y="527" type="line"/>
      <point x="372" y="434" type="line"/>
      <point x="341" y="434" type="line"/>
      <point x="341" y="403" type="line"/>
      <point x="310" y="403" type="line"/>
      <point x="310" y="372" type="line"/>
      <point x="155" y="372" type="line"/>
    </contour>
    <contour>
      <point x="155" y="0" type="line"/>
      <point x="248" y="0" type="line"/>
      <point x="248" y="124" type="line"/>
      <point x="155" y="124" type="line"/>
    </contour>
  </outline>
</glyph>
<glyph name="B" format="2">
  <advance width="589.0"/>
  <unicode hex="0042"/>
  <outline>
    <contour>
      <point x="31" y="0" type="line"/>
      <point x="434" y="0" type="line"/>
      <point x="434" y="31" type="line"/>
      <point x="496" y="31" type="line"/>
      <point x="496" y="62" type="line"/>
      <point x="527" y="62" type="line"/>
      <point x="527" y="124" type="line"/>
      <point x="558" y="124" type="line"/>
      <point x="558" y="279" type="line"/>
      <point x="527" y="279" type="line"/>
      <point x="527" y="341" type="line"/>
      <point x="465" y="341" type="line"/>
      <point x="465" y="372" type="line"/>
      <point x="496" y="372" type="line"/>
      <point x="496" y="434" type="line"/>
      <point x="527" y="434" type="line"/>
      <point x="527" y="589" type="line"/>
      <point x="496" y="589" type="line"/>
      <point x="496" y="651" type="line"/>
      <point x="434" y="651" type="line"/>
      <point x="434" y="682" type="line"/>
      <point x="31" y="682" type="line"/>
    </contour>
    <contour>
      <point x="403" y="558" type="line"/>
      <point x="434" y="558" type="line"/>
      <point x="434" y="465" type="line"/>
      <point x="403" y="465" type="line"/>
      <point x="403" y="434" type="line"/>
      <point x="372" y="434" type="line"/>
      <point x="372" y="403" type="line"/>
      <point x="124" y="403" type="line"/>
      <point x="124" y="589" type="line"/>
      <point x="403" y="589" type="line"/>
    </contour>
    <contour>
      <point x="403" y="279" type="line"/>
      <point x="434" y="279" type="line"/>
      <point x="434" y="248" type="line"/>
      <point x="465" y="248" type="line"/>
      <point x="465" y="155" type="line"/>
      <point x="434" y="155" type="line"/>
      <point x="434" y="124" type="line"/>
      <point x="403" y="124" type="line"/>
      <point x="403" y="93" type="line"/>
      <point x="124" y="93" type="line"/>
      <point x="124" y="310" type="line"/>
      <point x="403" y="310" type="line"/>
    </contour>
  </outline>
</glyph>
<glyph name="D" format="2">
  <advance width="589.0"/>
  <unicode hex="0044"/>
  <outline>
    <contour>
      <point x="31" y="0" type="line"/>
      <point x="403" y="0" type="line"/>
      <point x="403" y="31" type="line"/>
      <point x="465" y="31" type="line"/>
      <point x="465" y="62" type="line"/>
      <point x="496" y="62" type="line"/>
      <point x="496" y="124" type="line"/>
      <point x="527" y="124" type="line"/>
      <point x="527" y="217" type="line"/>
      <point x="558" y="217" type="line"/>
      <point x="558" y="465" type="line"/>
      <point x="527" y="465" type="line"/>
      <point x="527" y="558" type="line"/>
      <point x="496" y="558" type="line"/>
      <point x="496" y="620" type="line"/>
      <point x="465" y="620" type="line"/>
      <point x="465" y="651" type="line"/>
      <point x="403" y="651" type="line"/>
      <point x="403" y="682" type="line"/>
      <point x="31" y="682" type="line"/>
    </contour>
    <contour>
      <point x="434" y="465" type="line"/>
      <point x="465" y="465" type="line"/>
      <point x="465" y="217" type="line"/>
      <point x="434" y="217" type="line"/>
      <point x="434" y="155" type="line"/>
      <point x="403" y="155" type="line"/>
      <point x="403" y="124" type="line"/>
      <point x="372" y="124" type="line"/>
      <point x="372" y="93" type="line"/>
      <point x="124" y="93" type="line"/>
      <point x="124" y="589" type="line"/>
      <point x="372" y="589" type="line"/>
      <point x="372" y="558" type="line"/>
      <point x="403" y="558" type="line"/>
      <point x="403" y="527" type="line"/>
      <point x="434" y="527" type="line"/>
    </contour>
  </outline>
</glyph>
<glyph name="H" format="2">
  <advance width="558.0"/>
  <unicode hex="0048"/>
  <outline>
    <contour>
      <point x="31" y="0" type="line"/>
      <point x="124" y="0" type="line"/>
      <point x="124" y="310" type="line"/>
      <point x="434" y="310" type="line"/>
      <point x="434" y="0" type="line"/>
      <point x="527" y="0" type="line"/>
      <point x="527" y="682" type="line"/>
      <point x="434" y="682" type="line"/>
      <point x="434" y="403" type="line"/>
      <point x="124" y="403" type="line"/>
      <point x="124" y="682" type="line"/>
      <point x="31" y="682" type="line"/>
    </contour>
  </outline>
</glyph>
<glyph name="L" format="2">
  <advance width="434.0"/>
  <unicode hex="004C"/>
  <outline>
    <contour>
      <point x="31" y="0" type="line"/>
      <point x="434" y="0" type="line"/>
      <point x="434" y="93" type="line"/>
      <point x="124" y="93" type="line"/>
      <point x="124" y="682" type="line"/>
      <point x="31" y="682" type="line"/>
    </contour>
  </outline>
</glyph>
<glyph name="R" format="2">
  <advance width="558.0"/>
  <unicode hex="0052"/>
  <outline>
    <contour>
      <point x="31" y="0" type="line"/>
      <point x="124" y="0" type="line"/>
      <point x="124" y="279" type="line"/>
      <point x="279" y="279" type="line"/>
      <point x="279" y="217" type="line"/>
      <point x="310" y="217" type="line"/>
      <point x="310" y="186" type="line"/>
      <point x="341" y="186" type="line"/>
      <point x="341" y="124" type="line"/>
      <point x="372" y="124" type="line"/>
      <point x="372" y="93" type="line"/>
      <point x="403" y="93" type="line"/>
      <point x="403" y="31" type="line"/>
      <point x="434" y="31" type="line"/>
      <point x="434" y="0" type="line"/>
      <point x="527" y="0" type="line"/>
      <point x="527" y="62" type="line"/>
      <point x="496" y="62" type="line"/>
      <point x="496" y="124" type="line"/>
      <point x="465" y="124" type="line"/>
      <point x="465" y="155" type="line"/>
      <point x="434" y="155" type="line"/>
      <point x="434" y="217" type="line"/>
      <point x="403" y="217" type="line"/>
      <point x="403" y="248" type="line"/>
      <point x="372" y="248" type="line"/>
      <point x="372" y="279" type="line"/>
      <point x="403" y="279" type="line"/>
      <point x="403" y="310" type="line"/>
      <point x="465" y="310" type="line"/>
      <point x="465" y="341" type="line"/>
      <point x="496" y="341" type="line"/>
      <point x="496" y="403" type="line"/>
      <point x="527" y="403" type="line"/>
      <point x="527" y="558" type="line"/>
      <point x="496" y="558" type="line"/>
      <point x="496" y="620" type="line"/>
      <point x="465" y="620" type="line"/>
      <point x="465" y="651" type="line"/>
      <point x="403" y="651" type="line"/>
      <point x="403" y="682" type="line"/>
      <point x="31" y="682" type="line"/>
    </contour>
    <contour>
      <point x="403" y="527" type="line"/>
      <point x="434" y="527" type="line"/>
      <point x="434" y="434" type="line"/>
      <point x="403" y="434" type="line"/>
      <point x="403" y="403" type="line"/>
      <point x="372" y="403" type="line"/>
      <point x="372" y="372" type="line"/>
      <point x="124" y="372" type="line"/>
      <point x="124" y="589" type="line"/>
      <point x="372" y="589" type="line"/>
      <point x="372" y="558" type="line"/>
      <point x="403" y="558" type="line"/>
    </contour>
  </outline>
</glyph>
<glyph name="S" format="2">
  <advance width="558.0"/>
  <unicode hex="0053"/>
  <outline>
    <contour>
      <point x="31" y="62" type="line"/>
      <point x="62" y="62" type="line"/>
      <point x="62" y="31" type="line"/>
      <point x="124" y="31" type="line"/>
      <point x="124" y="0" type="line"/>
      <point x="372" y="0" type="line"/>
      <point x="372" y="31" type="line"/>
      <point x="465" y="31" type="line"/>
      <point x="465" y="93" type="line"/>
      <point x="496" y="93" type="line"/>
      <point x="496" y="155" type="line"/>
      <point x="527" y="155" type="line"/>
      <point x="527" y="248" type="line"/>
      <point x="496" y="248" type="line"/>
      <point x="496" y="310" type="line"/>
      <point x="465" y="310" type="line"/>
      <point x="465" y="341" type="line"/>
      <point x="434" y="341" type="line"/>
      <point x="434" y="372" type="line"/>
      <point x="341" y="372" type="line"/>
      <point x="341" y="403" type="line"/>
      <point x="217" y="403" type="line"/>
      <point x="217" y="434" type="line"/>
      <point x="155" y="434" type="line"/>
      <point x="155" y="465" type="line"/>
      <point x="124" y="465" type="line"/>
      <point x="124" y="558" type="line"/>
      <point x="186" y="558" type="line"/>
      <point x="186" y="589" type="line"/>
      <point x="341" y="589" type="line"/>
      <point x="341" y="558" type="line"/>
      <point x="403" y="558" type="line"/>
      <point x="403" y="465" type="line"/>
      <point x="496" y="465" type="line"/>
      <point x="496" y="589" type="line"/>
      <point x="465" y="589" type="line"/>
      <point x="465" y="651" type="line"/>
      <point x="372" y="651" type="line"/>
      <point x="372" y="682" type="line"/>
      <point x="155" y="682" type="line"/>
      <point x="155" y="651" type="line"/>
      <point x="62" y="651" type="line"/>
      <point x="62" y="589" type="line"/>
      <point x="31" y="589" type="line"/>
      <point x="31" y="403" type="line"/>
      <point x="62" y="403" type="line"/>
      <point x="62" y="372" type="line"/>
      <point x="93" y="372" type="line"/>
      <point x="93" y="341" type="line"/>
      <point x="186" y="341" type="line"/>
      <point x="186" y="310" type="line"/>
      <point x="279" y="310" type="line"/>
      <point x="279" y="279" type="line"/>
      <point x="372" y="279" type="line"/>
      <point x="372" y="248" type="line"/>
      <point x="403" y="248" type="line"/>
      <point x="403" y="217" type="line"/>
      <point x="434" y="217" type="line"/>
      <point x="434" y="186" type="line"/>
      <point x="403" y="186" type="line"/>
      <point x="403" y="124" type="line"/>
      <point x="341" y="124" type="line"/>
      <point x="341" y="93" type="line"/>
      <point x="186" y="93" type="line"/>
      <point x="186" y="124" type="line"/>
      <point x="124" y="124" type="line"/>
      <point x="124" y="217" type="line"/>
      <point x="93" y="217" type="line"/>
      <point x="93" y="248" type="line"/>
      <point x="62" y="248" type="line"/>
      <point x="62" y="217" type="line"/>
      <point x="0" y="217" type="line"/>
      <point x="0" y="124" type="line"/>
      <point x="31" y="124" type="line"/>
    </contour>
  </outline>
</glyph>
<glyph name="T" format="2">
  <advance width="465.0"/>
  <unicode hex="0054"/>
  <outline>
    <contour>
      <point x="186" y="0" type="line"/>
      <point x="279" y="0" type="line"/>
      <point x="279" y="589" type="line"/>
      <point x="465" y="589" type="line"/>
      <point x="465" y="682" type="line"/>
      <point x="0" y="682" type="line"/>
      <point x="0" y="589" type="line"/>
      <point x="186" y="589" type="line"/>
    </contour>
  </outline>
</glyph>
<glyph name="V" format="2">
  <advance width="558.0"/>
  <unicode hex="0056"/>
  <outline>
    <contour>
      <point x="186" y="62" type="line"/>
      <point x="217" y="62" type="line"/>
      <point x="217" y="0" type="line"/>
      <point x="341" y="0" type="line"/>
      <point x="341" y="62" type="line"/>
      <point x="372" y="62" type="line"/>
      <point x="372" y="155" type="line"/>
      <point x="403" y="155" type="line"/>
      <point x="403" y="248" type="line"/>
      <point x="434" y="248" type="line"/>
      <point x="434" y="341" type="line"/>
      <point x="465" y="341" type="line"/>
      <point x="465" y="434" type="line"/>
      <point x="496" y="434" type="line"/>
      <point x="496" y="527" type="line"/>
      <point x="527" y="527" type="line"/>
      <point x="527" y="620" type="line"/>
      <point x="558" y="620" type="line"/>
      <point x="558" y="682" type="line"/>
      <point x="465" y="682" type="line"/>
      <point x="465" y="651" type="line"/>
      <point x="434" y="651" type="line"/>
      <point x="434" y="558" type="line"/>
      <point x="403" y="558" type="line"/>
      <point x="403" y="465" type="line"/>
      <point x="372" y="465" type="line"/>
      <point x="372" y="372" type="line"/>
      <point x="341" y="372" type="line"/>
      <point x="341" y="279" type="line"/>
      <point x="310" y="279" type="line"/>
      <point x="310" y="186" type="line"/>
      <point x="248" y="186" type="line"/>
      <point x="248" y="279" type="line"/>
      <point x="217" y="279" type="line"/>
      <point x="217" y="372" type="line"/>
      <point x="186" y="372" type="line"/>
      <point x="186" y="465" type="line"/>
      <point x="155" y="465" type="line"/>
      <point x="155" y="558" type="line"/>
      <point x="124" y="558" type="line"/>
      <point x="124" y="651" type="line"/>
      <point x="93" y="651" type="line"/>
      <point x="93" y="682" type="line"/>
      <point x="0" y="682" type="line"/>
      <point x="0" y="620" type="line"/>
      <point x="31" y="620" type="line"/>
      <point x="31" y="527" type="line"/>
      <point x="62" y="527" type="line"/>
      <point x="62" y="434" type="line"/>
      <point x="93" y="434" type="line"/>
      <point x="93" y="341" type="line"/>
      <point x="124" y="341" type="line"/>
      <point x="124" y="248" type="line"/>
      <point x="155" y="248" type="line"/>
      <point x="155" y="155" type="line"/>
      <point x="186" y="155" type="line"/>
    </contour>
  </outline>
</glyph>
<glyph name="Z" format="2">
  <advance width="558.0"/>
  <unicode hex="005A"/>
  <outline>
    <contour>
      <point x="31" y="0" type="line"/>
      <point x="527" y="0" type="line"/>
      <point x="527" y="93" type="line"/>
      <point x="155" y="93" type="line"/>
      <point x="155" y="124" type="line"/>
      <point x="186" y="124" type="line"/>
      <point x="186" y="155" type="line"/>
      <point x="217" y="155" type="line"/>
      <point x="217" y="217" type="line"/>
      <point x="248" y="217" type="line"/>
      <point x="248" y="248" type="line"/>
      <point x="279" y="248" type="line"/>
      <point x="279" y="279" type="line"/>
      <point x="310" y="279" type="line"/>
      <point x="310" y="310" type="line"/>
      <point x="341" y="310" type="line"/>
      <point x="341" y="372" type="line"/>
      <point x="372" y="372" type="line"/>
      <point x="372" y="403" type="line"/>
      <point x="403" y="403" type="line"/>
      <point x="403" y="434" type="line"/>
      <point x="434" y="434" type="line"/>
      <point x="434" y="465" type="line"/>
      <point x="465" y="465" type="line"/>
      <point x="465" y="527" type="line"/>
      <point x="496" y="527" type="line"/>
      <point x="496" y="558" type="line"/>
      <point x="527" y="558" type="line"/>
      <point x="527" y="682" type="line"/>
      <point x="31" y="682" type="line"/>
      <point x="31" y="589" type="line"/>
      <point x="403" y="589" type="line"/>
      <point x="403" y="558" type="line"/>
      <point x="372" y="558" type="line"/>
      <point x="372" y="527" type="line"/>
      <point x="341" y="527" type="line"/>
      <point x="341" y="496" type="line"/>
      <point x="310" y="496" type="line"/>
      <point x="310" y="434" type="line"/>
      <point x="279" y="434" type="line"/>
      <point x="279" y="403" type="line"/>
      <point x="248" y="403" type="line"/>
      <point x="248" y="372" type="line"/>
      <point x="217" y="372" type="line"/>
      <point x="217" y="341" type="line"/>
      <point x="186" y="341" type="line"/>
      <point x="186" y="279" type="line"/>
      <point x="155" y="279" type="line"/>
      <point x="155" y="248" type="line"/>
      <point x="124" y="248" type="line"/>
      <point x="124" y="217" type="line"/>
      <point x="93" y="217" type="line"/>
      <point x="93" y="186" type="line"/>
      <point x="62" y="186" type="line"/>
      <point x="62" y="124" type="line"/>
      <point x="31" y="124" type="line"/>
    </contour>
  </outline>
</glyph>
<glyph name="asciicircum" format="2">
  <advance width="403.0"/>
  <unicode hex="005E"/>
  <outline>
    <contour>
      <point x="31" y="434" type="line"/>
      <point x="124" y="434" type="line"/>
      <point x="124" y="496" type="line"/>
      <point x="155" y="496" type="line"/>
      <point x="155" y="558" type="line"/>
      <point x="186" y="558" type="line"/>
      <point x="186" y="620" type="line"/>
      <point x="217" y="620" type="line"/>
      <point x="217" y="558" type="line"/>
      <point x="248" y="558" type="line"/>
      <point x="248" y="496" type="line"/>
      <point x="279" y="496" type="line"/>
      <point x="279" y="434" type="line"/>
      <point x="372" y="434" type="line"/>
      <point x="372" y="527" type="line"/>
      <point x="341" y="527" type="line"/>
      <point x="341" y="589" type="line"/>
      <point x="310" y="589" type="line"/>
      <point x="310" y="651" type="line"/>
      <point x="279" y="651" type="line"/>
      <point x="279" y="713" type="line"/>
      <point x="248" y="713" type="line"/>
      <point x="248" y="744" type="line"/>
      <point x="155" y="744" type="line"/>
      <point x="155" y="713" type="line"/>
      <point x="124" y="713" type="line"/>
      <point x="124" y="651" type="line"/>
      <point x="93" y="651" type="line"/>
      <point x="93" y="589" type="line"/>
      <point x="62" y="589" type="line"/>
      <point x="62" y="527" type="line"/>
      <point x="31" y="527" type="line"/>
    </contour>
  </outline>
</glyph>
<glyph name="i" format="2">
  <advance width="217.0"/>
  <unicode hex="0069"/>
  <outline>
    <contour>
      <point x="62" y="589" type="line"/>
      <point x="155" y="589" type="line"/>
      <point x="155" y="682" type="line"/>
      <point x="62" y="682" type="line"/>
    </contour>
    <contour>
      <point x="62" y="0" type="line"/>
      <point x="155" y="0" type="line"/>
      <point x="155" y="465" type="line"/>
      <point x="62" y="465" type="line"/>
    </contour>
  </outline>
</glyph>
<glyph name="j" format="2">
  <advance width="217.0"/>
  <unicode hex="006A"/>
  <outline>
    <contour>
      <point x="62" y="589" type="line"/>
      <point x="155" y="589" type="line"/>
      <point x="155" y="682" type="line"/>
      <point x="62" y="682" type="line"/>
    </contour>
    <contour>
      <point x="-31" y="-155" type="line"/>
      <point x="93" y="-155" type="line"/>
      <point x="93" y="-124" type="line"/>
      <point x="124" y="-124" type="line"/>
      <point x="124" y="-93" type="line"/>
      <point x="155" y="-93" type="line"/>
      <point x="155" y="465" type="line"/>
      <point x="62" y="465" type="line"/>
      <point x="62" y="-62" type="line"/>
      <point x="-31" y="-62" type="line"/>
    </contour>
  </outline>
</glyph>
<glyph name="k" format="2">
  <advance width="434.0"/>
  <unicode hex="006B"/>
  <outline>
    <contour>
      <point x="31" y="0" type="line"/>
      <point x="124" y="0" type="line"/>
      <point x="124" y="155" type="line"/>
      <point x="155" y="155" type="line"/>
      <point x="155" y="186" type="line"/>
      <point x="186" y="186" type="line"/>
      <point x="186" y="155" type="line"/>
      <point x="217" y="155" type="line"/>
      <point x="217" y="124" type="line"/>
      <point x="248" y="124" type="line"/>
      <point x="248" y="62" type="line"/>
      <point x="279" y="62" type="line"/>
      <point x="279" y="31" type="line"/>
      <point x="310" y="31" type="line"/>
      <point x="310" y="0" type="line"/>
      <point x="434" y="0" type="line"/>
      <point x="434" y="31" type="line"/>
      <point x="403" y="31" type="line"/>
      <point x="403" y="62" type="line"/>
      <point x="372" y="62" type="line"/>
      <point x="372" y="124" type="line"/>
      <point x="341" y="124" type="line"/>
      <point x="341" y="155" type="line"/>
      <point x="310" y="155" type="line"/>
      <point x="310" y="217" type="line"/>
      <point x="279" y="217" type="line"/>
      <point x="279" y="248" type="line"/>
      <point x="248" y="248" type="line"/>
      <point x="248" y="310" type="line"/>
      <point x="279" y="310" type="line"/>
      <point x="279" y="341" type="line"/>
      <point x="310" y="341" type="line"/>
      <point x="310" y="372" type="line"/>
      <point x="341" y="372" type="line"/>
      <point x="341" y="403" type="line"/>
      <point x="372" y="403" type="line"/>
      <point x="372" y="434" type="line"/>
      <point x="403" y="434" type="line"/>
      <point x="403" y="465" type="line"/>
      <point x="279" y="465" type="line"/>
      <point x="279" y="434" type="line"/>
      <point x="248" y="434" type="line"/>
      <point x="248" y="403" type="line"/>
      <point x="217" y="403" type="line"/>
      <point x="217" y="372" type="line"/>
      <point x="186" y="372" type="line"/>
      <point x="186" y="341" type="line"/>
      <point x="155" y="341" type="line"/>
      <point x="155" y="310" type="line"/>
      <point x="124" y="310" type="line"/>
      <point x="124" y="682" type="line"/>
      <point x="31" y="682" type="line"/>
    </contour>
  </outline>
</glyph>
<glyph name="m" format="2">
  <advance width="651.0"/>
  <unicode hex="006D"/>
  <outline>
    <contour>
      <point x="31" y="0" type="line"/>
      <point x="124" y="0" type="line"/>
      <point x="124" y="341" type="line"/>
      <point x="155" y="341" type="line"/>
      <point x="155" y="372" type="line"/>
      <point x="248" y="372" type="line"/>
      <point x="248" y="341" type="line"/>
      <point x="279" y="341" type="line"/>
      <point x="279" y="0" type="line"/>
      <point x="372" y="0" type="line"/>
      <point x="372" y="341" type="line"/>
      <point x="403" y="341" type="line"/>
      <point x="403" y="372" type="line"/>
      <point x="496" y="372" type="line"/>
      <point x="496" y="341" type="line"/>
      <point x="527" y="341" type="line"/>
      <point x="527" y="0" type="line"/>
      <point x="620" y="0" type="line"/>
      <point x="620" y="372" type="line"/>
      <point x="589" y="372" type="line"/>
      <point x="589" y="434" type="line"/>
      <point x="527" y="434" type="line"/>
      <point x="527" y="465" type="line"/>
      <point x="434" y="465" type="line"/>
      <point x="434" y="434" type="line"/>
      <point x="372" y="434" type="line"/>
      <point x="372" y="403" type="line"/>
      <point x="341" y="403" type="line"/>
      <point x="341" y="434" type="line"/>
      <point x="279" y="434" type="line"/>
      <point x="279" y="465" type="line"/>
      <point x="186" y="465" type="line"/>
      <point x="186" y="434" type="line"/>
      <point x="155" y="434" type="line"/>
      <point x="155" y="403" type="line"/>
      <point x="124" y="403" type="line"/>
      <point x="124" y="465" type="line"/>
      <point x="31" y="465" type="line"/>
    </contour>
  </outline>
</glyph>
<glyph name="p" format="2">
  <advance width="465.0"/>
  <unicode hex="0070"/>
  <outline>
    <contour>
      <point x="186" y="0" type="line"/>
      <point x="310" y="0" type="line"/>
      <point x="310" y="31" type="line"/>
      <point x="372" y="31" type="line"/>
      <point x="372" y="62" type="line"/>
      <point x="403" y="62" type="line"/>
      <point x="403" y="124" type="line"/>
      <point x="434" y="124" type="line"/>
      <point x="434" y="341" type="line"/>
      <point x="403" y="341" type="line"/>
      <point x="403" y="403" type="line"/>
      <point x="372" y="403" type="line"/>
      <point x="372" y="434" type="line"/>
      <point x="310" y="434" type="line"/>
      <point x="310" y="465" type="line"/>
      <point x="186" y="465" type="line"/>
      <point x="186" y="434" type="line"/>
      <point x="124" y="434" type="line"/>
      <point x="124" y="465" type="line"/>
      <point x="31" y="465" type="line"/>
      <point x="31" y="-186" type="line"/>
      <point x="124" y="-186" type="line"/>
      <point x="124" y="31" type="line"/>
      <point x="186" y="31" type="line"/>
    </contour>
    <contour>
      <point x="310" y="310" type="line"/>
      <point x="341" y="310" type="line"/>
      <point x="341" y="155" type="line"/>
      <point x="310" y="155" type="line"/>
      <point x="310" y="124" type="line"/>
      <point x="279" y="124" type="line"/>
      <point x="279" y="93" type="line"/>
      <point x="186" y="93" type="line"/>
      <point x="186" y="124" type="line"/>
      <point x="155" y="124" type="line"/>
      <point x="155" y="155" type="line"/>
      <point x="124" y="155" type="line"/>
      <point x="124" y="310" type="line"/>
      <point x="155" y="310" type="line"/>
      <point x="155" y="341" type="line"/>
      <point x="186" y="341" type="line"/>
      <point x="186" y="372" type="line"/>
      <point x="279" y="372" type="line"/>
      <point x="279" y="341" type="line"/>
      <point x="310" y="341" type="line"/>
    </contour>
  </outline>
</glyph>
<glyph name="bar" format="2">
  <advance width="155.0"/>
  <unicode hex="007C"/>
  <outline>
    <contour>
      <point x="31" y="-31" type="line"/>
      <point x="124" y="-31" type="line"/>
      <point x="124" y="713" type="line"/>
      <point x="31" y="713" type="line"/>
    </contour>
  </outline>
</glyph>
<glyph name="uni0081" format="2">
  <advance width="713.0"/>
  <unicode hex="0081"/>
  <outline>
    <contour>
      <point x="62" y="0" type="line"/>
      <point x="155" y="0" type="line"/>
      <point x="155" y="124" type="line"/>
      <point x="62" y="124" type="line"/>
    </contour>
    <contour>
      <point x="310" y="0" type="line"/>
      <point x="403" y="0" type="line"/>
      <point x="403" y="124" type="line"/>
      <point x="310" y="124" type="line"/>
    </contour>
    <contour>
      <point x="558" y="0" type="line"/>
      <point x="651" y="0" type="line"/>
      <point x="651" y="124" type="line"/>
      <point x="558" y="124" type="line"/>
    </contour>
  </outline>
</glyph>
<glyph name="uni0087" format="2">
  <advance width="620.0"/>
  <unicode hex="0087"/>
  <outline>
    <contour>
      <point x="31" y="31" type="line"/>
      <point x="62" y="31" type="line"/>
      <point x="62" y="62" type="line"/>
      <point x="93" y="62" type="line"/>
      <point x="93" y="93" type="line"/>
      <point x="124" y="93" type="line"/>
      <point x="124" y="124" type="line"/>
      <point x="155" y="124" type="line"/>
      <point x="155" y="155" type="line"/>
      <point x="186" y="155" type="line"/>
      <point x="186" y="186" type="line"/>
      <point x="217" y="186" type="line"/>
      <point x="217" y="217" type="line"/>
      <point x="248" y="217" type="line"/>
      <point x="248" y="248" type="line"/>
      <point x="279" y="248" type="line"/>
      <point x="279" y="279" type="line"/>
      <point x="310" y="279" type="line"/>
      <point x="310" y="310" type="line"/>
      <point x="341" y="310" type="line"/>
      <point x="341" y="341" type="line"/>
      <point x="372" y="341" type="line"/>
      <point x="372" y="372" type="line"/>
      <point x="403" y="372" type="line"/>
      <point x="403" y="403" type="line"/>
      <point x="434" y="403" type="line"/>
      <point x="434" y="434" type="line"/>
      <point x="465" y="434" type="line"/>
      <point x="465" y="465" type="line"/>
      <point x="496" y="465" type="line"/>
      <point x="496" y="496" type="line"/>
      <point x="527" y="496" type="line"/>
      <point x="527" y="527" type="line"/>
      <point x="558" y="527" type="line"/>
      <point x="558" y="558" type="line"/>
      <point x="589" y="558" type="line"/>
      <point x="589" y="589" type="line"/>
      <point x="620" y="589" type="line"/>
      <point x="620" y="620" type="line"/>
      <point x="589" y="620" type="line"/>
      <point x="589" y="651" type="line"/>
      <point x="558" y="651" type="line"/>
      <point x="558" y="620" type="line"/>
      <point x="527" y="620" type="line"/>
      <point x="527" y="589" type="line"/>
      <point x="496" y="589" type="line"/>
      <point x="496" y="558" type="line"/>
      <point x="465" y="558" type="line"/>
      <point x="465" y="527" type="line"/>
      <point x="434" y="527" type="line"/>
      <point x="434" y="496" type="line"/>
      <point x="403" y="496" type="line"/>
      <point x="403" y="465" type="line"/>
      <point x="372" y="465" type="line"/>
      <point x="372" y="434" type="line"/>
      <point x="341" y="434" type="line"/>
      <point x="341" y="403" type="line"/>
      <point x="310" y="403" type="line"/>
      <point x="310" y="372" type="line"/>
      <point x="279" y="372" type="line"/>
      <point x="279" y="341" type="line"/>
      <point x="248" y="341" type="line"/>
      <point x="248" y="310" type="line"/>
      <point x="217" y="310" type="line"/>
      <point x="217" y="279" type="line"/>
      <point x="186" y="279" type="line"/>
      <point x="186" y="248" type="line"/>
      <point x="155" y="248" type="line"/>
      <point x="155" y="217" type="line"/>
      <point x="124" y="217" type="line"/>
      <point x="124" y="186" type="line"/>
      <point x="93" y="186" type="line"/>
      <point x="93" y="155" type="line"/>
      <point x="62" y="155" type="line"/>
      <point x="62" y="124" type="line"/>
      <point x="31" y="124" type="line"/>
      <point x="31" y="93" type="line"/>
      <point x="0" y="93" type="line"/>
      <point x="0" y="62" type="line"/>
      <point x="31" y="62" type="line"/>
    </contour>
  </outline>
</glyph>
<glyph name="uni008e" format="2">
  <advance width="558.0"/>
  <unicode hex="008E"/>
  <outline>
    <contour>
      <point x="31" y="62" type="line"/>
      <point x="62" y="62" type="line"/>
      <point x="62" y="31" type="line"/>
      <point x="124" y="31" type="line"/>
      <point x="124" y="0" type="line"/>
      <point x="372" y="0" type="line"/>
      <point x="372" y="31" type="line"/>
      <point x="465" y="31" type="line"/>
      <point x="465" y="93" type="line"/>
      <point x="496" y="93" type="line"/>
      <point x="496" y="155" type="line"/>
      <point x="527" y="155" type="line"/>
      <point x="527" y="248" type="line"/>
      <point x="496" y="248" type="line"/>
      <point x="496" y="310" type="line"/>
      <point x="465" y="310" type="line"/>
      <point x="465" y="341" type="line"/>
      <point x="434" y="341" type="line"/>
      <point x="434" y="372" type="line"/>
      <point x="372" y="372" type="line"/>
      <point x="372" y="403" type="line"/>
      <point x="279" y="403" type="line"/>
      <point x="279" y="434" type="line"/>
      <point x="186" y="434" type="line"/>
      <point x="186" y="465" type="line"/>
      <point x="124" y="465" type="line"/>
      <point x="124" y="558" type="line"/>
      <point x="186" y="558" type="line"/>
      <point x="186" y="589" type="line"/>
      <point x="341" y="589" type="line"/>
      <point x="341" y="558" type="line"/>
      <point x="403" y="558" type="line"/>
      <point x="403" y="465" type="line"/>
      <point x="496" y="465" type="line"/>
      <point x="496" y="589" type="line"/>
      <point x="465" y="589" type="line"/>
      <point x="465" y="651" type="line"/>
      <point x="372" y="651" type="line"/>
      <point x="372" y="682" type="line"/>
      <point x="310" y="682" type="line"/>
      <point x="310" y="713" type="line"/>
      <point x="341" y="713" type="line"/>
      <point x="341" y="744" type="line"/>
      <point x="372" y="744" type="line"/>
      <point x="372" y="775" type="line"/>
      <point x="403" y="775" type="line"/>
      <point x="403" y="806" type="line"/>
      <point x="341" y="806" type="line"/>
      <point x="341" y="775" type="line"/>
      <point x="279" y="775" type="line"/>
      <point x="279" y="744" type="line"/>
      <point x="248" y="744" type="line"/>
      <point x="248" y="775" type="line"/>
      <point x="186" y="775" type="line"/>
      <point x="186" y="806" type="line"/>
      <point x="124" y="806" type="line"/>
      <point x="124" y="775" type="line"/>
      <point x="155" y="775" type="line"/>
      <point x="155" y="744" type="line"/>
      <point x="186" y="744" type="line"/>
      <point x="186" y="713" type="line"/>
      <point x="217" y="713" type="line"/>
      <point x="217" y="682" type="line"/>
      <point x="155" y="682" type="line"/>
      <point x="155" y="651" type="line"/>
      <point x="62" y="651" type="line"/>
      <point x="62" y="589" type="line"/>
      <point x="31" y="589" type="line"/>
      <point x="31" y="403" type="line"/>
      <point x="62" y="403" type="line"/>
      <point x="62" y="372" type="line"/>
      <point x="93" y="372" type="line"/>
      <point x="93" y="341" type="line"/>
      <point x="186" y="341" type="line"/>
      <point x="186" y="310" type="line"/>
      <point x="279" y="310" type="line"/>
      <point x="279" y="279" type="line"/>
      <point x="372" y="279" type="line"/>
      <point x="372" y="248" type="line"/>
      <point x="403" y="248" type="line"/>
      <point x="403" y="217" type="line"/>
      <point x="434" y="217" type="line"/>
      <point x="434" y="186" type="line"/>
      <point x="403" y="186" type="line"/>
      <point x="403" y="124" type="line"/>
      <point x="341" y="124" type="line"/>
      <point x="341" y="93" type="line"/>
      <point x="186" y="93" type="line"/>
      <point x="186" y="124" type="line"/>
      <point x="124" y="124" type="line"/>
      <point x="124" y="217" type="line"/>
      <point x="93" y="217" type="line"/>
      <point x="93" y="248" type="line"/>
      <point x="62" y="248" type="line"/>
      <point x="62" y="217" type="line"/>
      <point x="0" y="217" type="line"/>
      <point x="0" y="124" type="line"/>
      <point x="31" y="124" type="line"/>
    </contour>
  </outline>
</glyph>
<glyph name="uni0096" format="2">
  <advance width="341.0"/>
  <unicode hex="0096"/>
  <outline>
    <contour>
      <point x="124" y="651" type="line"/>
      <point x="217" y="651" type="line"/>
      <point x="217" y="682" type="line"/>
      <point x="279" y="682" type="line"/>
      <point x="279" y="744" type="line"/>
      <point x="310" y="744" type="line"/>
      <point x="310" y="806" type="line"/>
      <point x="279" y="806" type="line"/>
      <point x="279" y="775" type="line"/>
      <point x="248" y="775" type="line"/>
      <point x="248" y="744" type="line"/>
      <point x="93" y="744" type="line"/>
      <point x="93" y="775" type="line"/>
      <point x="62" y="775" type="line"/>
      <point x="62" y="806" type="line"/>
      <point x="31" y="806" type="line"/>
      <point x="31" y="744" type="line"/>
      <point x="62" y="744" type="line"/>
      <point x="62" y="682" type="line"/>
      <point x="124" y="682" type="line"/>
    </contour>
  </outline>
</glyph>
<glyph name="sterling" format="2">
  <advance width="589.0"/>
  <unicode hex="00A3"/>
  <outline>
    <contour>
      <point x="31" y="31" type="line"/>
      <point x="93" y="31" type="line"/>
      <point x="93" y="0" type="line"/>
      <point x="217" y="0" type="line"/>
      <point x="217" y="31" type="line"/>
      <point x="279" y="31" type="line"/>
      <point x="279" y="0" type="line"/>
      <point x="465" y="0" type="line"/>
      <point x="465" y="31" type="line"/>
      <point x="527" y="31" type="line"/>
      <point x="527" y="124" type="line"/>
      <point x="558" y="124" type="line"/>
      <point x="558" y="186" type="line"/>
      <point x="496" y="186" type="line"/>
      <point x="496" y="217" type="line"/>
      <point x="465" y="217" type="line"/>
      <point x="465" y="155" type="line"/>
      <point x="434" y="155" type="line"/>
      <point x="434" y="124" type="line"/>
      <point x="372" y="124" type="line"/>
      <point x="372" y="93" type="line"/>
      <point x="341" y="93" type="line"/>
      <point x="341" y="124" type="line"/>
      <point x="310" y="124" type="line"/>
      <point x="310" y="155" type="line"/>
      <point x="279" y="155" type="line"/>
      <point x="279" y="217" type="line"/>
      <point x="248" y="217" type="line"/>
      <point x="248" y="279" type="line"/>
      <point x="403" y="279" type="line"/>
      <point x="403" y="372" type="line"/>
      <point x="217" y="372" type="line"/>
      <point x="217" y="403" type="line"/>
      <point x="186" y="403" type="line"/>
      <point x="186" y="465" type="line"/>
      <point x="155" y="465" type="line"/>
      <point x="155" y="527" type="line"/>
      <point x="186" y="527" type="line"/>
      <point x="186" y="558" type="line"/>
      <point x="217" y="558" type="line"/>
      <point x="217" y="589" type="line"/>
      <point x="341" y="589" type="line"/>
      <point x="341" y="558" type="line"/>
      <point x="372" y="558" type="line"/>
      <point x="372" y="527" type="line"/>
      <point x="403" y="527" type="line"/>
      <point x="403" y="465" type="line"/>
      <point x="496" y="465" type="line"/>
      <point x="496" y="558" type="line"/>
      <point x="465" y="558" type="line"/>
      <point x="465" y="620" type="line"/>
      <point x="434" y="620" type="line"/>
      <point x="434" y="651" type="line"/>
      <point x="372" y="651" type="line"/>
      <point x="372" y="682" type="line"/>
      <point x="186" y="682" type="line"/>
      <point x="186" y="651" type="line"/>
      <point x="124" y="651" type="line"/>
      <point x="124" y="620" type="line"/>
      <point x="93" y="620" type="line"/>
      <point x="93" y="558" type="line"/>
      <point x="62" y="558" type="line"/>
      <point x="62" y="434" type="line"/>
      <point x="93" y="434" type="line"/>
      <point x="93" y="403" type="line"/>
      <point x="124" y="403" type="line"/>
      <point x="124" y="372" type="line"/>
      <point x="31" y="372" type="line"/>
      <point x="31" y="279" type="line"/>
      <point x="155" y="279" type="line"/>
      <point x="155" y="217" type="line"/>
      <point x="93" y="217" type="line"/>
      <point x="93" y="186" type="line"/>
      <point x="31" y="186" type="line"/>
    </contour>
    <contour>
      <point x="155" y="93" type="line"/>
      <point x="124" y="93" type="line"/>
      <point x="124" y="124" type="line"/>
      <point x="155" y="124" type="line"/>
    </contour>
  </outline>
</glyph>
<glyph name="brokenbar" format="2">
  <advance width="217.0"/>
  <unicode hex="00A6"/>
  <outline>
    <contour>
      <point x="62" y="372" type="line"/>
      <point x="155" y="372" type="line"/>
      <point x="155" y="744" type="line"/>
      <point x="62" y="744" type="line"/>
    </contour>
    <contour>
      <point x="62" y="-62" type="line"/>
      <point x="155" y="-62" type="line"/>
      <point x="155" y="310" type="line"/>
      <point x="62" y="310" type="line"/>
    </contour>
  </outline>
</glyph>
<glyph name="logicalnot" format="2">
  <advance width="465.0"/>
  <unicode hex="00AC"/>
  <outline>
    <contour>
      <point x="31" y="310" type="line"/>
      <point x="341" y="310" type="line"/>
      <point x="341" y="186" type="line"/>
      <point x="434" y="186" type="line"/>
      <point x="434" y="403" type="line"/>
      <point x="31" y="403" type="line"/>
    </contour>
  </outline>
</glyph>
<glyph name="macron" format="2">
  <advance width="341.0"/>
  <unicode hex="00AF"/>
  <outline>
    <contour>
      <point x="31" y="744" type="line"/>
      <point x="310" y="744" type="line"/>
      <point x="310" y="806" type="line"/>
      <point x="31" y="806" type="line"/>
    </contour>
  </outline>
</glyph>
<glyph name="degree" format="2">
  <advance width="372.0"/>
  <unicode hex="00B0"/>
  <outline>
    <contour>
      <point x="124" y="403" type="line"/>
      <point x="248" y="403" type="line"/>
      <point x="248" y="434" type="line"/>
      <point x="310" y="434" type="line"/>
      <point x="310" y="496" type="line"/>
      <point x="341" y="496" type="line"/>
      <point x="341" y="620" type="line"/>
      <point x="310" y="620" type="line"/>
      <point x="310" y="682" type="line"/>
      <point x="248" y="682" type="line"/>
      <point x="248" y="713" type="line"/>
      <point x="124" y="713" type="line"/>
      <point x="124" y="682" type="line"/>
      <point x="62" y="682" type="line"/>
      <point x="62" y="620" type="line"/>
      <point x="31" y="620" type="line"/>
      <point x="31" y="496" type="line"/>
      <point x="62" y="496" type="line"/>
      <point x="62" y="434" type="line"/>
      <point x="124" y="434" type="line"/>
    </contour>
    <contour>
      <point x="217" y="589" type="line"/>
      <point x="248" y="589" type="line"/>
      <point x="248" y="527" type="line"/>
      <point x="217" y="527" type="line"/>
      <point x="217" y="496" type="line"/>
      <point x="155" y="496" type="line"/>
      <point x="155" y="527" type="line"/>
      <point x="124" y="527" type="line"/>
      <point x="124" y="589" type="line"/>
      <point x="155" y="589" type="line"/>
      <point x="155" y="620" type="line"/>
      <point x="217" y="620" type="line"/>
    </contour>
  </outline>
</glyph>
<glyph name="periodcentered" format="2">
  <advance width="248.0"/>
  <unicode hex="00B7"/>
  <outline>
    <contour>
      <point x="62" y="186" type="line"/>
      <point x="186" y="186" type="line"/>
      <point x="186" y="217" type="line"/>
      <point x="217" y="217" type="line"/>
      <point x="217" y="341" type="line"/>
      <point x="186" y="341" type="line"/>
      <point x="186" y="372" type="line"/>
      <point x="62" y="372" type="line"/>
      <point x="62" y="341" type="line"/>
      <point x="31" y="341" type="line"/>
      <point x="31" y="217" type="line"/>
      <point x="62" y="217" type="line"/>
    </contour>
  </outline>
</glyph>
<glyph name="onesuperior" format="2">
  <advance width="217.0"/>
  <unicode hex="00B9"/>
  <outline>
    <contour>
      <point x="93" y="372" type="line"/>
      <point x="155" y="372" type="line"/>
      <point x="155" y="713" type="line"/>
      <point x="93" y="713" type="line"/>
      <point x="93" y="682" type="line"/>
      <point x="62" y="682" type="line"/>
      <point x="62" y="651" type="line"/>
      <point x="0" y="651" type="line"/>
      <point x="0" y="589" type="line"/>
      <point x="93" y="589" type="line"/>
    </contour>
  </outline>
</glyph>
<glyph name="onequarter" format="2">
  <advance width="558.0"/>
  <unicode hex="00BC"/>
  <outline>
    <contour>
      <point x="124" y="341" type="line"/>
      <point x="186" y="341" type="line"/>
      <point x="186" y="682" type="line"/>
      <point x="124" y="682" type="line"/>
      <point x="124" y="651" type="line"/>
      <point x="93" y="651" type="line"/>
      <point x="93" y="620" type="line"/>
      <point x="31" y="620" type="line"/>
      <point x="31" y="558" type="line"/>
      <point x="124" y="558" type="line"/>
    </contour>
    <contour>
      <point x="248" y="93" type="line"/>
      <point x="403" y="93" type="line"/>
      <point x="403" y="0" type="line"/>
      <point x="465" y="0" type="line"/>
      <point x="465" y="93" type="line"/>
      <point x="527" y="93" type="line"/>
      <point x="527" y="155" type="line"/>
      <point x="465" y="155" type="line"/>
      <point x="465" y="372" type="line"/>
      <point x="403" y="372" type="line"/>
      <point x="403" y="341" type="line"/>
      <point x="372" y="341" type="line"/>
      <point x="372" y="310" type="line"/>
      <point x="341" y="310" type="line"/>
      <point x="341" y="248" type="line"/>
      <point x="310" y="248" type="line"/>
      <point x="310" y="217" type="line"/>
      <point x="279" y="217" type="line"/>
      <point x="279" y="186" type="line"/>
      <point x="248" y="186" type="line"/>
    </contour>
    <contour>
      <point x="341" y="217" type="line"/>
      <point x="372" y="217" type="line"/>
      <point x="372" y="248" type="line"/>
      <point x="403" y="248" type="line"/>
      <point x="403" y="155" type="line"/>
      <point x="310" y="155" type="line"/>
      <point x="310" y="186" type="line"/>
      <point x="341" y="186" type="line"/>
    </contour>
  </outline>
</glyph>
<glyph name="onehalf" format="2">
  <advance width="527.0"/>
  <unicode hex="00BD"/>
  <outline>
    <contour>
      <point x="124" y="341" type="line"/>
      <point x="186" y="341" type="line"/>
      <point x="186" y="682" type="line"/>
      <point x="124" y="682" type="line"/>
      <point x="124" y="651" type="line"/>
      <point x="93" y="651" type="line"/>
      <point x="93" y="620" type="line"/>
      <point x="31" y="620" type="line"/>
      <point x="31" y="558" type="line"/>
      <point x="124" y="558" type="line"/>
    </contour>
    <contour>
      <point x="248" y="0" type="line"/>
      <point x="496" y="0" type="line"/>
      <point x="496" y="62" type="line"/>
      <point x="341" y="62" type="line"/>
      <point x="341" y="93" type="line"/>
      <point x="403" y="93" type="line"/>
      <point x="403" y="124" type="line"/>
      <point x="434" y="124" type="line"/>
      <point x="434" y="155" type="line"/>
      <point x="465" y="155" type="line"/>
      <point x="465" y="186" type="line"/>
      <point x="496" y="186" type="line"/>
      <point x="496" y="279" type="line"/>
      <point x="465" y="279" type="line"/>
      <point x="465" y="310" type="line"/>
      <point x="434" y="310" type="line"/>
      <point x="434" y="341" type="line"/>
      <point x="310" y="341" type="line"/>
      <point x="310" y="310" type="line"/>
      <point x="279" y="310" type="line"/>
      <point x="279" y="279" type="line"/>
      <point x="248" y="279" type="line"/>
      <point x="248" y="217" type="line"/>
      <point x="279" y="217" type="line"/>
      <point x="279" y="186" type="line"/>
      <point x="310" y="186" type="line"/>
      <point x="310" y="217" type="line"/>
      <point x="341" y="217" type="line"/>
      <point x="341" y="248" type="line"/>
      <point x="310" y="248" type="line"/>
      <point x="310" y="279" type="line"/>
      <point x="434" y="279" type="line"/>
      <point x="434" y="217" type="line"/>
      <point x="403" y="217" type="line"/>
      <point x="403" y="186" type="line"/>
      <point x="372" y="186" type="line"/>
      <point x="372" y="155" type="line"/>
      <point x="341" y="155" type="line"/>
      <point x="341" y="124" type="line"/>
      <point x="279" y="124" type="line"/>
      <point x="279" y="93" type="line"/>
      <point x="248" y="93" type="line"/>
    </contour>
  </outline>
</glyph>
<glyph name="threequarters" format="2">
  <advance width="620.0"/>
  <unicode hex="00BE"/>
  <outline>
    <contour>
      <point x="93" y="341" type="line"/>
      <point x="217" y="341" type="line"/>
      <point x="217" y="372" type="line"/>
      <point x="248" y="372" type="line"/>
      <point x="248" y="403" type="line"/>
      <point x="279" y="403" type="line"/>
      <point x="279" y="465" type="line"/>
      <point x="248" y="465" type="line"/>
      <point x="248" y="496" type="line"/>
      <point x="217" y="496" type="line"/>
      <point x="217" y="527" type="line"/>
      <point x="248" y="527" type="line"/>
      <point x="248" y="558" type="line"/>
      <point x="279" y="558" type="line"/>
      <point x="279" y="620" type="line"/>
      <point x="248" y="620" type="line"/>
      <point x="248" y="651" type="line"/>
      <point x="217" y="651" type="line"/>
      <point x="217" y="682" type="line"/>
      <point x="93" y="682" type="line"/>
      <point x="93" y="651" type="line"/>
      <point x="62" y="651" type="line"/>
      <point x="62" y="620" type="line"/>
      <point x="31" y="620" type="line"/>
      <point x="31" y="558" type="line"/>
      <point x="93" y="558" type="line"/>
      <point x="93" y="620" type="line"/>
      <point x="186" y="620" type="line"/>
      <point x="186" y="589" type="line"/>
      <point x="217" y="589" type="line"/>
      <point x="217" y="558" type="line"/>
      <point x="186" y="558" type="line"/>
      <point x="186" y="527" type="line"/>
      <point x="124" y="527" type="line"/>
      <point x="124" y="496" type="line"/>
      <point x="186" y="496" type="line"/>
      <point x="186" y="465" type="line"/>
      <point x="217" y="465" type="line"/>
      <point x="217" y="434" type="line"/>
      <point x="186" y="434" type="line"/>
      <point x="186" y="403" type="line"/>
      <point x="93" y="403" type="line"/>
      <point x="93" y="465" type="line"/>
      <point x="31" y="465" type="line"/>
      <point x="31" y="403" type="line"/>
      <point x="62" y="403" type="line"/>
      <point x="62" y="372" type="line"/>
      <point x="93" y="372" type="line"/>
    </contour>
    <contour>
      <point x="310" y="93" type="line"/>
      <point x="465" y="93" type="line"/>
      <point x="465" y="0" type="line"/>
      <point x="527" y="0" type="line"/>
      <point x="527" y="93" type="line"/>
      <point x="589" y="93" type="line"/>
      <point x="589" y="155" type="line"/>
      <point x="527" y="155" type="line"/>
      <point x="527" y="372" type="line"/>
      <point x="465" y="372" type="line"/>
      <point x="465" y="341" type="line"/>
      <point x="434" y="341" type="line"/>
      <point x="434" y="310" type="line"/>
      <point x="403" y="310" type="line"/>
      <point x="403" y="248" type="line"/>
      <point x="372" y="248" type="line"/>
      <point x="372" y="217" type="line"/>
      <point x="341" y="217" type="line"/>
      <point x="341" y="186" type="line"/>
      <point x="310" y="186" type="line"/>
    </contour>
    <contour>
      <point x="403" y="217" type="line"/>
      <point x="434" y="217" type="line"/>
      <point x="434" y="248" type="line"/>
      <point x="465" y="248" type="line"/>
      <point x="465" y="155" type="line"/>
      <point x="372" y="155" type="line"/>
      <point x="372" y="186" type="line"/>
      <point x="403" y="186" type="line"/>
    </contour>
  </outline>
</glyph>
<glyph name="questiondown" format="2">
  <advance width="496.0"/>
  <unicode hex="00BF"/>
  <outline>
    <contour>
      <point x="248" y="496" type="line"/>
      <point x="341" y="496" type="line"/>
      <point x="341" y="620" type="line"/>
      <point x="248" y="620" type="line"/>
    </contour>
    <contour>
      <point x="62" y="0" type="line"/>
      <point x="93" y="0" type="line"/>
      <point x="93" y="-31" type="line"/>
      <point x="155" y="-31" type="line"/>
      <point x="155" y="-62" type="line"/>
      <point x="341" y="-62" type="line"/>
      <point x="341" y="-31" type="line"/>
      <point x="403" y="-31" type="line"/>
      <point x="403" y="0" type="line"/>
      <point x="434" y="0" type="line"/>
      <point x="434" y="31" type="line"/>
      <point x="465" y="31" type="line"/>
      <point x="465" y="155" type="line"/>
      <point x="372" y="155" type="line"/>
      <point x="372" y="93" type="line"/>
      <point x="341" y="93" type="line"/>
      <point x="341" y="62" type="line"/>
      <point x="310" y="62" type="line"/>
      <point x="310" y="31" type="line"/>
      <point x="186" y="31" type="line"/>
      <point x="186" y="62" type="line"/>
      <point x="155" y="62" type="line"/>
      <point x="155" y="93" type="line"/>
      <point x="124" y="93" type="line"/>
      <point x="124" y="186" type="line"/>
      <point x="155" y="186" type="line"/>
      <point x="155" y="217" type="line"/>
      <point x="186" y="217" type="line"/>
      <point x="186" y="248" type="line"/>
      <point x="341" y="248" type="line"/>
      <point x="341" y="434" type="line"/>
      <point x="248" y="434" type="line"/>
      <point x="248" y="341" type="line"/>
      <point x="155" y="341" type="line"/>
      <point x="155" y="310" type="line"/>
      <point x="93" y="310" type="line"/>
      <point x="93" y="279" type="line"/>
      <point x="62" y="279" type="line"/>
      <point x="62" y="217" type="line"/>
      <point x="31" y="217" type="line"/>
      <point x="31" y="62" type="line"/>
      <point x="62" y="62" type="line"/>
    </contour>
  </outline>
</glyph>
<glyph name="Egrave" format="2">
  <advance width="496.0"/>
  <unicode hex="00C8"/>
  <outline>
    <contour>
      <point x="31" y="0" type="line"/>
      <point x="465" y="0" type="line"/>
      <point x="465" y="93" type="line"/>
      <point x="124" y="93" type="line"/>
      <point x="124" y="310" type="line"/>
      <point x="434" y="310" type="line"/>
      <point x="434" y="403" type="line"/>
      <point x="124" y="403" type="line"/>
      <point x="124" y="589" type="line"/>
      <point x="465" y="589" type="line"/>
      <point x="465" y="682" type="line"/>
      <point x="310" y="682" type="line"/>
      <point x="310" y="713" type="line"/>
      <point x="279" y="713" type="line"/>
      <point x="279" y="744" type="line"/>
      <point x="248" y="744" type="line"/>
      <point x="248" y="775" type="line"/>
      <point x="217" y="775" type="line"/>
      <point x="217" y="806" type="line"/>
      <point x="124" y="806" type="line"/>
      <point x="124" y="775" type="line"/>
      <point x="155" y="775" type="line"/>
      <point x="155" y="744" type="line"/>
      <point x="217" y="744" type="line"/>
      <point x="217" y="713" type="line"/>
      <point x="248" y="713" type="line"/>
      <point x="248" y="682" type="line"/>
      <point x="31" y="682" type="line"/>
    </contour>
  </outline>
</glyph>
<glyph name="Ecircumflex" format="2">
  <advance width="496.0"/>
  <unicode hex="00CA"/>
  <outline>
    <contour>
      <point x="155" y="713" type="line"/>
      <point x="217" y="713" type="line"/>
      <point x="217" y="744" type="line"/>
      <point x="279" y="744" type="line"/>
      <point x="279" y="713" type="line"/>
      <point x="341" y="713" type="line"/>
      <point x="341" y="744" type="line"/>
      <point x="310" y="744" type="line"/>
      <point x="310" y="775" type="line"/>
      <point x="279" y="775" type="line"/>
      <point x="279" y="806" type="line"/>
      <point x="217" y="806" type="line"/>
      <point x="217" y="775" type="line"/>
      <point x="186" y="775" type="line"/>
      <point x="186" y="744" type="line"/>
      <point x="155" y="744" type="line"/>
    </contour>
    <contour>
      <point x="31" y="0" type="line"/>
      <point x="465" y="0" type="line"/>
      <point x="465" y="93" type="line"/>
      <point x="124" y="93" type="line"/>
      <point x="124" y="310" type="line"/>
      <point x="434" y="310" type="line"/>
      <point x="434" y="403" type="line"/>
      <point x="124" y="403" type="line"/>
      <point x="124" y="589" type="line"/>
      <point x="465" y="589" type="line"/>
      <point x="465" y="682" type="line"/>
      <point x="31" y="682" type="line"/>
    </contour>
  </outline>
</glyph>
<glyph name="Icircumflex" format="2">
  <advance width="217.0"/>
  <unicode hex="00CE"/>
  <outline>
    <contour>
      <point x="0" y="682" type="line"/>
      <point x="31" y="682" type="line"/>
      <point x="31" y="713" type="line"/>
      <point x="93" y="713" type="line"/>
      <point x="93" y="744" type="line"/>
      <point x="124" y="744" type="line"/>
      <point x="124" y="713" type="line"/>
      <point x="186" y="713" type="line"/>
      <point x="186" y="682" type="line"/>
      <point x="217" y="682" type="line"/>
      <point x="217" y="744" type="line"/>
      <point x="186" y="744" type="line"/>
      <point x="186" y="775" type="line"/>
      <point x="155" y="775" type="line"/>
      <point x="155" y="806" type="line"/>
      <point x="62" y="806" type="line"/>
      <point x="62" y="775" type="line"/>
      <point x="31" y="775" type="line"/>
      <point x="31" y="744" type="line"/>
      <point x="0" y="744" type="line"/>
    </contour>
    <contour>
      <point x="62" y="0" type="line"/>
      <point x="155" y="0" type="line"/>
      <point x="155" y="682" type="line"/>
      <point x="62" y="682" type="line"/>
    </contour>
  </outline>
</glyph>
<glyph name="multiply" format="2">
  <advance width="465.0"/>
  <unicode hex="00D7"/>
  <outline>
    <contour>
      <point x="93" y="93" type="line"/>
      <point x="124" y="93" type="line"/>
      <point x="124" y="124" type="line"/>
      <point x="155" y="124" type="line"/>
      <point x="155" y="155" type="line"/>
      <point x="186" y="155" type="line"/>
      <point x="186" y="186" type="line"/>
      <point x="217" y="186" type="line"/>
      <point x="217" y="217" type="line"/>
      <point x="248" y="217" type="line"/>
      <point x="248" y="186" type="line"/>
      <point x="279" y="186" type="line"/>
      <point x="279" y="155" type="line"/>
      <point x="310" y="155" type="line"/>
      <point x="310" y="124" type="line"/>
      <point x="341" y="124" type="line"/>
      <point x="341" y="93" type="line"/>
      <point x="372" y="93" type="line"/>
      <point x="372" y="124" type="line"/>
      <point x="403" y="124" type="line"/>
      <point x="403" y="155" type="line"/>
      <point x="434" y="155" type="line"/>
      <point x="434" y="186" type="line"/>
      <point x="403" y="186" type="line"/>
      <point x="403" y="217" type="line"/>
      <point x="372" y="217" type="line"/>
      <point x="372" y="248" type="line"/>
      <point x="341" y="248" type="line"/>
      <point x="341" y="279" type="line"/>
      <point x="310" y="279" type="line"/>
      <point x="310" y="310" type="line"/>
      <point x="341" y="310" type="line"/>
      <point x="341" y="341" type="line"/>
      <point x="372" y="341" type="line"/>
      <point x="372" y="372" type="line"/>
      <point x="403" y="372" type="line"/>
      <point x="403" y="403" type="line"/>
      <point x="434" y="403" type="line"/>
      <point x="434" y="434" type="line"/>
      <point x="403" y="434" type="line"/>
      <point x="403" y="465" type="line"/>
      <point x="372" y="465" type="line"/>
      <point x="372" y="496" type="line"/>
      <point x="341" y="496" type="line"/>
      <point x="341" y="465" type="line"/>
      <point x="310" y="465" type="line"/>
      <point x="310" y="434" type="line"/>
      <point x="279" y="434" type="line"/>
      <point x="279" y="403" type="line"/>
      <point x="248" y="403" type="line"/>
      <point x="248" y="372" type="line"/>
      <point x="217" y="372" type="line"/>
      <point x="217" y="403" type="line"/>
      <point x="186" y="403" type="line"/>
      <point x="186" y="434" type="line"/>
      <point x="155" y="434" type="line"/>
      <point x="155" y="465" type="line"/>
      <point x="124" y="465" type="line"/>
      <point x="124" y="496" type="line"/>
      <point x="93" y="496" type="line"/>
      <point x="93" y="465" type="line"/>
      <point x="62" y="465" type="line"/>
      <point x="62" y="434" type="line"/>
      <point x="31" y="434" type="line"/>
      <point x="31" y="403" type="line"/>
      <point x="62" y="403" type="line"/>
      <point x="62" y="372" type="line"/>
      <point x="93" y="372" type="line"/>
      <point x="93" y="341" type="line"/>
      <point x="124" y="341" type="line"/>
      <point x="124" y="310" type="line"/>
      <point x="155" y="310" type="line"/>
      <point x="155" y="279" type="line"/>
      <point x="124" y="279" type="line"/>
      <point x="124" y="248" type="line"/>
      <point x="93" y="248" type="line"/>
      <point x="93" y="217" type="line"/>
      <point x="62" y="217" type="line"/>
      <point x="62" y="186" type="line"/>
      <point x="31" y="186" type="line"/>
      <point x="31" y="155" type="line"/>
      <point x="62" y="155" type="line"/>
      <point x="62" y="124" type="line"/>
      <point x="93" y="124" type="line"/>
    </contour>
  </outline>
</glyph>
<glyph name="germandbls" format="2">
  <advance width="465.0"/>
  <unicode hex="00DF"/>
  <outline>
    <contour>
      <point x="31" y="-124" type="line"/>
      <point x="124" y="-124" type="line"/>
      <point x="124" y="558" type="line"/>
      <point x="155" y="558" type="line"/>
      <point x="155" y="589" type="line"/>
      <point x="279" y="589" type="line"/>
      <point x="279" y="558" type="line"/>
      <point x="310" y="558" type="line"/>
      <point x="310" y="465" type="line"/>
      <point x="279" y="465" type="line"/>
      <point x="279" y="434" type="line"/>
      <point x="186" y="434" type="line"/>
      <point x="186" y="341" type="line"/>
      <point x="279" y="341" type="line"/>
      <point x="279" y="310" type="line"/>
      <point x="310" y="310" type="line"/>
      <point x="310" y="279" type="line"/>
      <point x="341" y="279" type="line"/>
      <point x="341" y="155" type="line"/>
      <point x="310" y="155" type="line"/>
      <point x="310" y="124" type="line"/>
      <point x="279" y="124" type="line"/>
      <point x="279" y="93" type="line"/>
      <point x="155" y="93" type="line"/>
      <point x="155" y="0" type="line"/>
      <point x="310" y="0" type="line"/>
      <point x="310" y="31" type="line"/>
      <point x="372" y="31" type="line"/>
      <point x="372" y="62" type="line"/>
      <point x="403" y="62" type="line"/>
      <point x="403" y="124" type="line"/>
      <point x="434" y="124" type="line"/>
      <point x="434" y="310" type="line"/>
      <point x="403" y="310" type="line"/>
      <point x="403" y="341" type="line"/>
      <point x="372" y="341" type="line"/>
      <point x="372" y="372" type="line"/>
      <point x="341" y="372" type="line"/>
      <point x="341" y="403" type="line"/>
      <point x="372" y="403" type="line"/>
      <point x="372" y="434" type="line"/>
      <point x="403" y="434" type="line"/>
      <point x="403" y="589" type="line"/>
      <point x="372" y="589" type="line"/>
      <point x="372" y="651" type="line"/>
      <point x="310" y="651" type="line"/>
      <point x="310" y="682" type="line"/>
      <point x="124" y="682" type="line"/>
      <point x="124" y="651" type="line"/>
      <point x="62" y="651" type="line"/>
      <point x="62" y="589" type="line"/>
      <point x="31" y="589" type="line"/>
    </contour>
  </outline>
</glyph>
<glyph name="igrave" format="2">
  <advance width="217.0"/>
  <unicode hex="00EC"/>
  <outline>
    <contour>
      <point x="93" y="558" type="line"/>
      <point x="186" y="558" type="line"/>
      <point x="186" y="589" type="line"/>
      <point x="155" y="589" type="line"/>
      <point x="155" y="620" type="line"/>
      <point x="124" y="620" type="line"/>
      <point x="124" y="651" type="line"/>
      <point x="93" y="651" type="line"/>
      <point x="93" y="682" type="line"/>
      <point x="0" y="682" type="line"/>
      <point x="0" y="651" type="line"/>
      <point x="31" y="651" type="line"/>
      <point x="31" y="620" type="line"/>
      <point x="62" y="620" type="line"/>
      <point x="62" y="589" type="line"/>
      <point x="93" y="589" type="line"/>
    </contour>
    <contour>
      <point x="62" y="0" type="line"/>
      <point x="155" y="0" type="line"/>
      <point x="155" y="496" type="line"/>
      <point x="62" y="496" type="line"/>
    </contour>
  </outline>
</glyph>
<glyph name="icircumflex" format="2">
  <advance width="217.0"/>
  <unicode hex="00EE"/>
  <outline>
    <contour>
      <point x="0" y="527" type="line"/>
      <point x="31" y="527" type="line"/>
      <point x="31" y="558" type="line"/>
      <point x="93" y="558" type="line"/>
      <point x="93" y="589" type="line"/>
      <point x="124" y="589" type="line"/>
      <point x="124" y="558" type="line"/>
      <point x="186" y="558" type="line"/>
      <point x="186" y="527" type="line"/>
      <point x="217" y="527" type="line"/>
      <point x="217" y="589" type="line"/>
      <point x="186" y="589" type="line"/>
      <point x="186" y="620" type="line"/>
      <point x="155" y="620" type="line"/>
      <point x="155" y="651" type="line"/>
      <point x="62" y="651" type="line"/>
      <point x="62" y="620" type="line"/>
      <point x="31" y="620" type="line"/>
      <point x="31" y="589" type="line"/>
      <point x="0" y="589" type="line"/>
    </contour>
    <contour>
      <point x="62" y="0" type="line"/>
      <point x="155" y="0" type="line"/>
      <point x="155" y="465" type="line"/>
      <point x="62" y="465" type="line"/>
    </contour>
  </outline>
</glyph>
<glyph name="idieresis" format="2">
  <advance width="217.0"/>
  <unicode hex="00EF"/>
  <outline>
    <contour>
      <point x="0" y="527" type="line"/>
      <point x="93" y="527" type="line"/>
      <point x="93" y="620" type="line"/>
      <point x="0" y="620" type="line"/>
    </contour>
    <contour>
      <point x="124" y="527" type="line"/>
      <point x="217" y="527" type="line"/>
      <point x="217" y="620" type="line"/>
      <point x="124" y="620" type="line"/>
    </contour>
    <contour>
      <point x="62" y="0" type="line"/>
      <point x="155" y="0" type="line"/>
      <point x="155" y="465" type="line"/>
      <point x="62" y="465" type="line"/>
    </contour>
  </outline>
</glyph>
<glyph name="ntilde" format="2">
  <advance width="434.0"/>
  <unicode hex="00F1"/>
  <outline>
    <contour>
      <point x="62" y="527" type="line"/>
      <point x="93" y="527" type="line"/>
      <point x="93" y="558" type="line"/>
      <point x="124" y="558" type="line"/>
      <point x="124" y="589" type="line"/>
      <point x="155" y="589" type="line"/>
      <point x="155" y="558" type="line"/>
      <point x="217" y="558" type="line"/>
      <point x="217" y="527" type="line"/>
      <point x="279" y="527" type="line"/>
      <point x="279" y="558" type="line"/>
      <point x="341" y="558" type="line"/>
      <point x="341" y="651" type="line"/>
      <point x="310" y="651" type="line"/>
      <point x="310" y="620" type="line"/>
      <point x="279" y="620" type="line"/>
      <point x="279" y="589" type="line"/>
      <point x="248" y="589" type="line"/>
      <point x="248" y="620" type="line"/>
      <point x="186" y="620" type="line"/>
      <point x="186" y="651" type="line"/>
      <point x="124" y="651" type="line"/>
      <point x="124" y="620" type="line"/>
      <point x="62" y="620" type="line"/>
    </contour>
    <contour>
      <point x="31" y="0" type="line"/>
      <point x="124" y="0" type="line"/>
      <point x="124" y="341" type="line"/>
      <point x="155" y="341" type="line"/>
      <point x="155" y="372" type="line"/>
      <point x="279" y="372" type="line"/>
      <point x="279" y="341" type="line"/>
      <point x="310" y="341" type="line"/>
      <point x="310" y="0" type="line"/>
      <point x="403" y="0" type="line"/>
      <point x="403" y="372" type="line"/>
      <point x="372" y="372" type="line"/>
      <point x="372" y="434" type="line"/>
      <point x="310" y="434" type="line"/>
      <point x="310" y="465" type="line"/>
      <point x="186" y="465" type="line"/>
      <point x="186" y="434" type="line"/>
      <point x="155" y="434" type="line"/>
      <point x="155" y="403" type="line"/>
      <point x="124" y="403" type="line"/>
      <point x="124" y="465" type="line"/>
      <point x="31" y="465" type="line"/>
    </contour>
  </outline>
</glyph>
<glyph name="odieresis" format="2">
  <advance width="465.0"/>
  <unicode hex="00F6"/>
  <outline>
    <contour>
      <point x="93" y="527" type="line"/>
      <point x="186" y="527" type="line"/>
      <point x="186" y="620" type="line"/>
      <point x="93" y="620" type="line"/>
    </contour>
    <contour>
      <point x="279" y="527" type="line"/>
      <point x="372" y="527" type="line"/>
      <point x="372" y="620" type="line"/>
      <point x="279" y="620" type="line"/>
    </contour>
    <contour>
      <point x="62" y="62" type="line"/>
      <point x="93" y="62" type="line"/>
      <point x="93" y="31" type="line"/>
      <point x="155" y="31" type="line"/>
      <point x="155" y="0" type="line"/>
      <point x="310" y="0" type="line"/>
      <point x="310" y="31" type="line"/>
      <point x="372" y="31" type="line"/>
      <point x="372" y="62" type="line"/>
      <point x="403" y="62" type="line"/>
      <point x="403" y="124" type="line"/>
      <point x="434" y="124" type="line"/>
      <point x="434" y="341" type="line"/>
      <point x="403" y="341" type="line"/>
      <point x="403" y="403" type="line"/>
      <point x="372" y="403" type="line"/>
      <point x="372" y="434" type="line"/>
      <point x="310" y="434" type="line"/>
      <point x="310" y="465" type="line"/>
      <point x="155" y="465" type="line"/>
      <point x="155" y="434" type="line"/>
      <point x="93" y="434" type="line"/>
      <point x="93" y="403" type="line"/>
      <point x="62" y="403" type="line"/>
      <point x="62" y="341" type="line"/>
      <point x="31" y="341" type="line"/>
      <point x="31" y="124" type="line"/>
      <point x="62" y="124" type="line"/>
    </contour>
    <contour>
      <point x="310" y="310" type="line"/>
      <point x="341" y="310" type="line"/>
      <point x="341" y="155" type="line"/>
      <point x="310" y="155" type="line"/>
      <point x="310" y="93" type="line"/>
      <point x="155" y="93" type="line"/>
      <point x="155" y="155" type="line"/>
      <point x="124" y="155" type="line"/>
      <point x="124" y="310" type="line"/>
      <point x="155" y="310" type="line"/>
      <point x="155" y="372" type="line"/>
      <point x="310" y="372" type="line"/>
    </contour>
  </outline>
</glyph>
<glyph name="ucircumflex" format="2">
  <advance width="434.0"/>
  <unicode hex="00FB"/>
  <outline>
    <contour>
      <point x="124" y="558" type="line"/>
      <point x="186" y="558" type="line"/>
      <point x="186" y="589" type="line"/>
      <point x="248" y="589" type="line"/>
      <point x="248" y="558" type="line"/>
      <point x="310" y="558" type="line"/>
      <point x="310" y="589" type="line"/>
      <point x="279" y="589" type="line"/>
      <point x="279" y="620" type="line"/>
      <point x="248" y="620" type="line"/>
      <point x="248" y="651" type="line"/>
      <point x="186" y="651" type="line"/>
      <point x="186" y="620" type="line"/>
      <point x="155" y="620" type="line"/>
      <point x="155" y="589" type="line"/>
      <point x="124" y="589" type="line"/>
    </contour>
    <contour>
      <point x="93.0" y="527" type="line"/>
      <point x="124.0" y="527" type="line"/>
      <point x="124.0" y="558" type="line"/>
      <point x="93.0" y="558" type="line"/>
    </contour>
    <contour>
      <point x="310.0" y="527" type="line"/>
      <point x="341.0" y="527" type="line"/>
      <point x="341.0" y="558" type="line"/>
      <point x="310.0" y="558" type="line"/>
    </contour>
    <contour>
      <point x="62" y="31" type="line"/>
      <point x="124" y="31" type="line"/>
      <point x="124" y="0" type="line"/>
      <point x="248" y="0" type="line"/>
      <point x="248" y="31" type="line"/>
      <point x="279" y="31" type="line"/>
      <point x="279" y="62" type="line"/>
      <point x="310" y="62" type="line"/>
      <point x="310" y="0" type="line"/>
      <point x="403" y="0" type="line"/>
      <point x="403" y="465" type="line"/>
      <point x="310" y="465" type="line"/>
      <point x="310" y="124" type="line"/>
      <point x="279" y="124" type="line"/>
      <point x="279" y="93" type="line"/>
      <point x="155" y="93" type="line"/>
      <point x="155" y="124" type="line"/>
      <point x="124" y="124" type="line"/>
      <point x="124" y="465" type="line"/>
      <point x="31" y="465" type="line"/>
      <point x="31" y="93" type="line"/>
      <point x="62" y="93" type="line"/>
    </contour>
  </outline>
</glyph>
<glyph name="yacute" format="2">
  <advance width="372.0"/>
  <unicode hex="00FD"/>
  <outline>
    <contour>
      <point x="93" y="527" type="line"/>
      <point x="155" y="527" type="line"/>
      <point x="155" y="558" type="line"/>
      <point x="186" y="558" type="line"/>
      <point x="186" y="589" type="line"/>
      <point x="248" y="589" type="line"/>
      <point x="248" y="620" type="line"/>
      <point x="279" y="620" type="line"/>
      <point x="279" y="651" type="line"/>
      <point x="186" y="651" type="line"/>
      <point x="186" y="620" type="line"/>
      <point x="155" y="620" type="line"/>
      <point x="155" y="589" type="line"/>
      <point x="124" y="589" type="line"/>
      <point x="124" y="558" type="line"/>
      <point x="93" y="558" type="line"/>
    </contour>
    <contour>
      <point x="124" y="0" type="line"/>
      <point x="155" y="0" type="line"/>
      <point x="155" y="-31" type="line"/>
      <point x="124" y="-31" type="line"/>
      <point x="124" y="-93" type="line"/>
      <point x="0" y="-93" type="line"/>
      <point x="0" y="-186" type="line"/>
      <point x="155" y="-186" type="line"/>
      <point x="155" y="-155" type="line"/>
      <point x="186" y="-155" type="line"/>
      <point x="186" y="-124" type="line"/>
      <point x="217" y="-124" type="line"/>
      <point x="217" y="-31" type="line"/>
      <point x="248" y="-31" type="line"/>
      <point x="248" y="93" type="line"/>
      <point x="279" y="93" type="line"/>
      <point x="279" y="186" type="line"/>
      <point x="310" y="186" type="line"/>
      <point x="310" y="279" type="line"/>
      <point x="341" y="279" type="line"/>
      <point x="341" y="372" type="line"/>
      <point x="372" y="372" type="line"/>
      <point x="372" y="465" type="line"/>
      <point x="279" y="465" type="line"/>
      <point x="279" y="372" type="line"/>
      <point x="248" y="372" type="line"/>
      <point x="248" y="279" type="line"/>
      <point x="217" y="279" type="line"/>
      <point x="217" y="186" type="line"/>
      <point x="155" y="186" type="line"/>
      <point x="155" y="279" type="line"/>
      <point x="124" y="279" type="line"/>
      <point x="124" y="372" type="line"/>
      <point x="93" y="372" type="line"/>
      <point x="93" y="465" type="line"/>
      <point x="0" y="465" type="line"/>
      <point x="0" y="372" type="line"/>
      <point x="31" y="372" type="line"/>
      <point x="31" y="279" type="line"/>
      <point x="62" y="279" type="line"/>
      <point x="62" y="186" type="line"/>
      <point x="93" y="186" type="line"/>
      <point x="93" y="93" type="line"/>
      <point x="124" y="93" type="line"/>
    </contour>
  </outline>
</glyph>
